<svg width="1726" height="802" viewBox="0 0 1726 802" fill="none" xmlns="http://www.w3.org/2000/svg">
<rect x="4.5" y="143.5" width="1716.25" height="653.922" rx="52.5" stroke="#67C7BF" stroke-width="9"/>
<path d="M102.186 263.629H114.746C113.946 267.843 112.719 271.336 111.066 274.109C109.466 276.829 107.573 278.989 105.386 280.589C103.253 282.136 100.879 283.203 98.2661 283.789C95.6528 284.376 93.0128 284.669 90.3461 284.669C86.7195 284.669 83.3595 284.003 80.2661 282.669C77.1728 281.336 74.5328 279.523 72.3461 277.229C70.1595 274.883 68.4261 272.083 67.1461 268.829C65.9195 265.576 65.3061 262.056 65.3061 258.269C65.3061 254.483 65.8928 250.963 67.0661 247.709C68.2928 244.456 69.9728 241.683 72.1061 239.389C74.2928 237.043 76.9328 235.203 80.0261 233.869C83.1195 232.536 86.5595 231.869 90.3461 231.869C93.0128 231.869 95.6528 232.189 98.2661 232.829C100.879 233.469 103.253 234.589 105.386 236.189C107.573 237.789 109.466 239.949 111.066 242.669C112.719 245.389 113.946 248.803 114.746 252.909H102.026C101.279 249.069 99.7595 246.483 97.4661 245.149C95.2261 243.763 92.8528 243.069 90.3461 243.069C86.5595 243.069 83.4928 244.509 81.1461 247.389C78.8528 250.269 77.7061 253.896 77.7061 258.269C77.7061 262.643 78.8795 266.269 81.2261 269.149C83.5728 272.029 86.6128 273.469 90.3461 273.469C92.7461 273.469 95.0928 272.856 97.3861 271.629C99.7328 270.403 101.333 267.736 102.186 263.629ZM137.482 284.669C134.816 284.669 132.309 284.216 129.962 283.309C127.616 282.403 125.562 281.123 123.802 279.469C122.096 277.816 120.736 275.843 119.722 273.549C118.709 271.203 118.202 268.643 118.202 265.869C118.202 263.096 118.709 260.563 119.722 258.269C120.736 255.923 122.122 253.923 123.882 252.269C125.642 250.616 127.696 249.336 130.042 248.429C132.389 247.523 134.869 247.069 137.482 247.069C140.096 247.069 142.576 247.523 144.922 248.429C147.269 249.336 149.322 250.616 151.082 252.269C152.842 253.923 154.229 255.923 155.242 258.269C156.256 260.563 156.762 263.096 156.762 265.869C156.762 268.643 156.256 271.203 155.242 273.549C154.229 275.843 152.842 277.816 151.082 279.469C149.376 281.123 147.349 282.403 145.002 283.309C142.656 284.216 140.149 284.669 137.482 284.669ZM137.482 274.269C139.722 274.269 141.429 273.496 142.602 271.949C143.829 270.349 144.442 268.323 144.442 265.869C144.442 263.416 143.829 261.416 142.602 259.869C141.376 258.269 139.669 257.469 137.482 257.469C135.296 257.469 133.589 258.269 132.362 259.869C131.136 261.416 130.522 263.416 130.522 265.869C130.522 268.323 131.109 270.349 132.282 271.949C133.509 273.496 135.242 274.269 137.482 274.269ZM162.152 283.469V248.269H174.472V252.909C175.592 251.043 177.032 249.603 178.792 248.589C180.552 247.576 182.552 247.069 184.792 247.069C188.898 247.069 192.152 248.483 194.552 251.309C196.952 254.136 198.152 258.029 198.152 262.989V283.469H185.832V264.189C185.832 261.789 185.378 260.003 184.472 258.829C183.565 257.656 182.258 257.069 180.552 257.069C178.685 257.069 177.192 257.656 176.072 258.829C175.005 259.949 174.472 261.736 174.472 264.189V283.469H162.152ZM201.208 257.869V248.269H208.648V234.669H220.968V248.269H231.128V257.869H220.968V269.549C220.968 271.256 221.368 272.403 222.168 272.989C222.968 273.576 224.141 273.869 225.688 273.869C226.595 273.869 227.528 273.789 228.488 273.629C229.448 273.469 230.328 273.336 231.128 273.229V283.869C229.955 284.136 228.648 284.323 227.208 284.429C225.821 284.589 224.488 284.669 223.208 284.669C218.408 284.669 214.781 283.576 212.328 281.389C209.875 279.203 208.648 275.549 208.648 270.429V257.869H201.208ZM235.472 265.869C235.472 262.883 235.872 260.216 236.672 257.869C237.525 255.523 238.618 253.549 239.952 251.949C241.338 250.349 242.965 249.149 244.832 248.349C246.698 247.496 248.645 247.069 250.672 247.069C253.018 247.069 255.205 247.549 257.232 248.509C259.258 249.469 260.912 250.936 262.192 252.909V248.269H274.512V283.469H262.192V278.829C260.912 280.803 259.258 282.269 257.232 283.229C255.205 284.189 253.018 284.669 250.672 284.669C248.645 284.669 246.698 284.269 244.832 283.469C242.965 282.616 241.338 281.389 239.952 279.789C238.618 278.189 237.525 276.216 236.672 273.869C235.872 271.523 235.472 268.856 235.472 265.869ZM255.072 257.069C252.778 257.069 250.992 257.923 249.712 259.629C248.432 261.283 247.792 263.363 247.792 265.869C247.792 268.376 248.432 270.483 249.712 272.189C250.992 273.843 252.778 274.669 255.072 274.669C257.205 274.669 258.938 273.896 260.272 272.349C261.658 270.803 262.352 268.643 262.352 265.869C262.352 263.096 261.685 260.936 260.352 259.389C259.018 257.843 257.258 257.069 255.072 257.069ZM292.163 265.869C292.163 268.909 292.83 271.203 294.163 272.749C295.496 274.296 297.07 275.069 298.883 275.069C300.323 275.069 301.603 274.589 302.723 273.629C303.843 272.669 304.51 271.229 304.723 269.309H317.363C316.99 272.189 316.163 274.616 314.883 276.589C313.603 278.563 312.083 280.163 310.323 281.389C308.616 282.563 306.75 283.389 304.723 283.869C302.696 284.403 300.75 284.669 298.883 284.669C296.536 284.669 294.216 284.296 291.923 283.549C289.63 282.803 287.576 281.683 285.763 280.189C284.003 278.643 282.563 276.669 281.443 274.269C280.376 271.869 279.843 269.069 279.843 265.869C279.843 262.669 280.376 259.869 281.443 257.469C282.563 255.069 284.003 253.123 285.763 251.629C287.576 250.083 289.63 248.936 291.923 248.189C294.216 247.443 296.536 247.069 298.883 247.069C300.75 247.069 302.696 247.336 304.723 247.869C306.75 248.349 308.616 249.203 310.323 250.429C312.03 251.603 313.523 253.176 314.803 255.149C316.083 257.123 316.936 259.549 317.363 262.429H304.723C304.563 260.456 303.896 259.016 302.723 258.109C301.603 257.149 300.323 256.669 298.883 256.669C297.07 256.669 295.496 257.443 294.163 258.989C292.83 260.536 292.163 262.829 292.163 265.869ZM318.786 257.869V248.269H326.226V234.669H338.546V248.269H348.706V257.869H338.546V269.549C338.546 271.256 338.946 272.403 339.746 272.989C340.546 273.576 341.719 273.869 343.266 273.869C344.173 273.869 345.106 273.789 346.066 273.629C347.026 273.469 347.906 273.336 348.706 273.229V283.869C347.533 284.136 346.226 284.323 344.786 284.429C343.399 284.589 342.066 284.669 340.786 284.669C335.986 284.669 332.359 283.576 329.906 281.389C327.453 279.203 326.226 275.549 326.226 270.429V257.869H318.786ZM382.506 248.269V267.149C382.506 269.549 382.959 271.336 383.866 272.509C384.826 273.683 386.052 274.269 387.546 274.269C388.986 274.269 390.186 273.629 391.146 272.349C392.159 271.016 392.666 268.936 392.666 266.109V248.269H404.986V283.469H392.666V278.909C391.492 280.829 390.026 282.269 388.266 283.229C386.506 284.189 384.666 284.669 382.746 284.669C379.012 284.669 375.972 283.469 373.626 281.069C371.332 278.616 370.186 275.149 370.186 270.669V248.269H382.506ZM442.232 258.589H430.552C430.552 257.523 430.125 256.749 429.272 256.269C428.472 255.736 427.512 255.469 426.392 255.469C425.538 255.469 424.792 255.656 424.152 256.029C423.565 256.349 423.272 256.856 423.272 257.549C423.272 258.243 423.512 258.803 423.992 259.229C424.525 259.656 425.672 260.056 427.432 260.429L435.272 262.029C438.365 262.669 440.525 263.843 441.752 265.549C443.032 267.256 443.672 269.416 443.672 272.029C443.672 275.656 442.125 278.669 439.032 281.069C435.938 283.469 432.045 284.669 427.352 284.669C422.285 284.669 418.232 283.496 415.192 281.149C412.205 278.749 410.605 275.709 410.392 272.029H422.472C422.525 273.416 423.032 274.483 423.992 275.229C424.952 275.923 426.178 276.269 427.672 276.269C428.845 276.269 429.805 276.029 430.552 275.549C431.298 275.016 431.672 274.269 431.672 273.309C431.672 272.776 431.458 272.269 431.032 271.789C430.605 271.309 429.858 270.963 428.792 270.749L421.992 269.309C418.152 268.456 415.405 267.123 413.752 265.309C412.098 263.443 411.272 261.149 411.272 258.429C411.272 255.016 412.632 252.269 415.352 250.189C418.125 248.109 421.912 247.069 426.712 247.069C431.032 247.069 434.605 248.029 437.432 249.949C440.258 251.816 441.858 254.696 442.232 258.589ZM463.128 265.869C463.128 262.883 463.528 260.216 464.328 257.869C465.181 255.523 466.275 253.549 467.608 251.949C468.995 250.349 470.621 249.149 472.488 248.349C474.355 247.496 476.301 247.069 478.328 247.069C480.675 247.069 482.861 247.549 484.888 248.509C486.915 249.469 488.568 250.936 489.848 252.909V248.269H502.168V283.469H489.848V278.829C488.568 280.803 486.915 282.269 484.888 283.229C482.861 284.189 480.675 284.669 478.328 284.669C476.301 284.669 474.355 284.269 472.488 283.469C470.621 282.616 468.995 281.389 467.608 279.789C466.275 278.189 465.181 276.216 464.328 273.869C463.528 271.523 463.128 268.856 463.128 265.869ZM482.728 257.069C480.435 257.069 478.648 257.923 477.368 259.629C476.088 261.283 475.448 263.363 475.448 265.869C475.448 268.376 476.088 270.483 477.368 272.189C478.648 273.843 480.435 274.669 482.728 274.669C484.861 274.669 486.595 273.896 487.928 272.349C489.315 270.803 490.008 268.643 490.008 265.869C490.008 263.096 489.341 260.936 488.008 259.389C486.675 257.843 484.915 257.069 482.728 257.069ZM505.739 257.869V248.269H513.179V234.669H525.499V248.269H535.659V257.869H525.499V269.549C525.499 271.256 525.899 272.403 526.699 272.989C527.499 273.576 528.673 273.869 530.219 273.869C531.126 273.869 532.059 273.789 533.019 273.629C533.979 273.469 534.859 273.336 535.659 273.229V283.869C534.486 284.136 533.179 284.323 531.739 284.429C530.353 284.589 529.019 284.669 527.739 284.669C522.939 284.669 519.313 283.576 516.859 281.389C514.406 279.203 513.179 275.549 513.179 270.429V257.869H505.739Z" fill="white"/>
<path d="M212.727 419.016C212.727 417.256 213.047 415.536 213.687 413.856C214.367 412.176 215.267 410.716 216.387 409.476C217.507 408.196 218.807 407.176 220.287 406.416C221.807 405.616 223.407 405.216 225.087 405.216C226.727 405.216 228.227 405.636 229.587 406.476C230.947 407.276 231.927 408.596 232.527 410.436L233.307 406.056H237.567L234.927 420.456C234.647 421.936 234.767 423.036 235.287 423.756C235.807 424.436 236.747 424.776 238.107 424.776C240.067 424.776 241.587 423.876 242.667 422.076C243.747 420.276 244.287 417.816 244.287 414.696C244.287 412.696 243.887 410.756 243.087 408.876C242.327 406.996 241.207 405.336 239.727 403.896C238.247 402.456 236.427 401.296 234.267 400.416C232.147 399.536 229.727 399.096 227.007 399.096C224.167 399.096 221.527 399.556 219.087 400.476C216.687 401.396 214.607 402.716 212.847 404.436C211.127 406.116 209.767 408.156 208.767 410.556C207.767 412.956 207.267 415.616 207.267 418.536C207.267 423.576 208.727 427.636 211.647 430.716C214.607 433.796 218.467 435.336 223.227 435.336C224.827 435.336 226.547 435.116 228.387 434.676C230.227 434.236 232.167 433.436 234.207 432.276L235.527 435.756C233.487 437.036 231.327 437.896 229.047 438.336C226.807 438.816 224.787 439.056 222.987 439.056C219.987 439.056 217.267 438.576 214.827 437.616C212.427 436.656 210.367 435.296 208.647 433.536C206.927 431.776 205.607 429.636 204.687 427.116C203.767 424.596 203.307 421.796 203.307 418.716C203.307 415.356 203.887 412.256 205.047 409.416C206.247 406.536 207.887 404.076 209.967 402.036C212.047 399.956 214.547 398.336 217.467 397.176C220.387 395.976 223.567 395.376 227.007 395.376C230.367 395.376 233.367 395.896 236.007 396.936C238.687 397.936 240.927 399.316 242.727 401.076C244.527 402.836 245.887 404.916 246.807 407.316C247.767 409.716 248.247 412.296 248.247 415.056C248.247 419.136 247.307 422.396 245.427 424.836C243.547 427.276 241.067 428.496 237.987 428.496C236.147 428.496 234.567 427.996 233.247 426.996C231.927 425.956 231.107 424.696 230.787 423.216C229.747 424.896 228.427 426.216 226.827 427.176C225.227 428.096 223.487 428.556 221.607 428.556C220.447 428.556 219.327 428.356 218.247 427.956C217.207 427.556 216.267 426.956 215.427 426.156C214.627 425.356 213.967 424.376 213.447 423.216C212.967 422.016 212.727 420.616 212.727 419.016ZM225.567 409.236C224.247 409.236 223.047 409.516 221.967 410.076C220.927 410.636 220.047 411.376 219.327 412.296C218.647 413.176 218.107 414.176 217.707 415.296C217.347 416.376 217.167 417.456 217.167 418.536C217.167 420.296 217.667 421.756 218.667 422.916C219.707 424.036 221.167 424.596 223.047 424.596C224.287 424.596 225.427 424.336 226.467 423.816C227.547 423.296 228.467 422.616 229.227 421.776C230.027 420.936 230.627 419.956 231.027 418.836C231.467 417.676 231.687 416.476 231.687 415.236C231.687 413.316 231.107 411.836 229.947 410.796C228.827 409.756 227.367 409.236 225.567 409.236ZM254.521 428.916V388.116H259.321V409.776C260.201 407.616 261.461 406.016 263.101 404.976C264.781 403.936 266.581 403.416 268.501 403.416C271.181 403.416 273.341 404.376 274.981 406.296C276.621 408.176 277.441 410.856 277.441 414.336V428.916H272.641V415.536C272.641 413.136 272.181 411.276 271.261 409.956C270.341 408.596 268.861 407.916 266.821 407.916C264.661 407.916 262.861 408.696 261.421 410.256C260.021 411.816 259.321 414.156 259.321 417.276V428.916H254.521ZM284.364 416.616C284.364 414.496 284.724 412.616 285.444 410.976C286.164 409.296 287.084 407.916 288.204 406.836C289.324 405.716 290.584 404.876 291.984 404.316C293.384 403.716 294.784 403.416 296.184 403.416C297.904 403.416 299.584 403.896 301.224 404.856C302.904 405.776 304.224 407.176 305.184 409.056V404.316H309.984V428.916H305.184V424.176C304.224 426.056 302.904 427.476 301.224 428.436C299.584 429.356 297.904 429.816 296.184 429.816C294.784 429.816 293.384 429.516 291.984 428.916C290.584 428.356 289.324 427.536 288.204 426.456C287.084 425.336 286.164 423.956 285.444 422.316C284.724 420.636 284.364 418.736 284.364 416.616ZM297.024 407.916C294.664 407.916 292.784 408.756 291.384 410.436C289.984 412.116 289.284 414.176 289.284 416.616C289.284 419.056 289.984 421.116 291.384 422.796C292.784 424.476 294.664 425.316 297.024 425.316C299.304 425.316 301.244 424.556 302.844 423.036C304.484 421.516 305.304 419.376 305.304 416.616C305.304 413.856 304.504 411.716 302.904 410.196C301.304 408.676 299.344 407.916 297.024 407.916ZM322.214 416.616C322.214 419.416 322.894 421.596 324.254 423.156C325.654 424.716 327.434 425.496 329.594 425.496C331.234 425.496 332.614 425.056 333.734 424.176C334.894 423.296 335.794 421.996 336.434 420.276H341.414C340.694 423.276 339.334 425.616 337.334 427.296C335.374 428.976 332.894 429.816 329.894 429.816C326.214 429.816 323.194 428.596 320.834 426.156C318.474 423.676 317.294 420.496 317.294 416.616C317.294 412.776 318.474 409.616 320.834 407.136C323.194 404.656 326.214 403.416 329.894 403.416C332.934 403.416 335.454 404.276 337.454 405.996C339.494 407.716 340.834 410.116 341.474 413.196H336.494C335.894 411.436 335.014 410.096 333.854 409.176C332.734 408.216 331.314 407.736 329.594 407.736C327.434 407.736 325.654 408.516 324.254 410.076C322.894 411.636 322.214 413.816 322.214 416.616ZM348.212 428.916V388.116H353.012V414.156L363.512 404.316H369.692L357.272 415.896L370.652 428.916H364.352L353.012 417.816V428.916H348.212ZM379.109 416.616C379.109 419.416 379.789 421.596 381.149 423.156C382.549 424.716 384.329 425.496 386.489 425.496C388.129 425.496 389.509 425.056 390.629 424.176C391.789 423.296 392.689 421.996 393.329 420.276H398.309C397.589 423.276 396.229 425.616 394.229 427.296C392.269 428.976 389.789 429.816 386.789 429.816C383.109 429.816 380.089 428.596 377.729 426.156C375.369 423.676 374.189 420.496 374.189 416.616C374.189 412.776 375.369 409.616 377.729 407.136C380.089 404.656 383.109 403.416 386.789 403.416C389.829 403.416 392.349 404.276 394.349 405.996C396.389 407.716 397.729 410.116 398.369 413.196H393.389C392.789 411.436 391.909 410.096 390.749 409.176C389.629 408.216 388.209 407.736 386.489 407.736C384.329 407.736 382.549 408.516 381.149 410.076C379.789 411.636 379.109 413.816 379.109 416.616ZM405.107 428.916V388.116H409.907V428.916H405.107ZM423.315 404.316V419.016C423.315 421.016 423.715 422.576 424.515 423.696C425.355 424.776 426.695 425.316 428.535 425.316C430.535 425.316 432.175 424.536 433.455 422.976C434.775 421.416 435.435 419.076 435.435 415.956V404.316H440.235V428.916H435.435V423.636C434.595 425.756 433.395 427.316 431.835 428.316C430.275 429.316 428.575 429.816 426.735 429.816C424.295 429.816 422.315 428.976 420.795 427.296C419.275 425.616 418.515 423.256 418.515 420.216V404.316H423.315ZM474.848 416.616C474.848 418.736 474.488 420.636 473.768 422.316C473.088 423.956 472.208 425.336 471.128 426.456C470.048 427.536 468.808 428.356 467.408 428.916C466.048 429.516 464.688 429.816 463.328 429.816C461.568 429.816 459.828 429.356 458.108 428.436C456.388 427.476 455.028 426.036 454.028 424.116V428.916H449.228V388.116H454.028V409.116C455.028 407.196 456.388 405.776 458.108 404.856C459.828 403.896 461.568 403.416 463.328 403.416C464.688 403.416 466.048 403.716 467.408 404.316C468.808 404.876 470.048 405.716 471.128 406.836C472.208 407.916 473.088 409.296 473.768 410.976C474.488 412.616 474.848 414.496 474.848 416.616ZM462.188 407.916C459.908 407.916 457.948 408.676 456.308 410.196C454.708 411.716 453.908 413.856 453.908 416.616C453.908 419.376 454.708 421.516 456.308 423.036C457.908 424.556 459.868 425.316 462.188 425.316C464.548 425.316 466.428 424.476 467.828 422.796C469.228 421.116 469.928 419.056 469.928 416.616C469.928 414.176 469.228 412.116 467.828 410.436C466.428 408.756 464.548 407.916 462.188 407.916ZM498.598 404.316H503.758L493.558 428.916H488.938L478.738 404.316H484.018L491.338 423.396L498.598 404.316ZM511.687 400.236C510.607 400.236 509.667 399.856 508.867 399.096C508.107 398.336 507.727 397.396 507.727 396.276C507.727 395.196 508.107 394.276 508.867 393.516C509.667 392.756 510.607 392.376 511.687 392.376C512.767 392.376 513.687 392.756 514.447 393.516C515.247 394.276 515.647 395.196 515.647 396.276C515.647 397.396 515.247 398.336 514.447 399.096C513.687 399.856 512.767 400.236 511.687 400.236ZM509.287 428.916V404.316H514.087V428.916H509.287ZM519.755 408.516V404.316H526.595V394.116H531.335V404.316H540.455V408.516H531.335V419.796C531.335 421.716 531.735 423.116 532.535 423.996C533.335 424.876 534.595 425.316 536.315 425.316C536.995 425.316 537.675 425.276 538.355 425.196C539.035 425.076 539.735 424.936 540.455 424.776V429.396C539.655 429.556 538.875 429.656 538.115 429.696C537.355 429.776 536.635 429.816 535.955 429.816C532.755 429.816 530.395 429.056 528.875 427.536C527.355 425.976 526.595 423.616 526.595 420.456V408.516H519.755ZM550.495 416.616C550.495 419.416 551.175 421.596 552.535 423.156C553.935 424.716 555.715 425.496 557.875 425.496C559.515 425.496 560.895 425.056 562.015 424.176C563.175 423.296 564.075 421.996 564.715 420.276H569.695C568.975 423.276 567.615 425.616 565.615 427.296C563.655 428.976 561.175 429.816 558.175 429.816C554.495 429.816 551.475 428.596 549.115 426.156C546.755 423.676 545.575 420.496 545.575 416.616C545.575 412.776 546.755 409.616 549.115 407.136C551.475 404.656 554.495 403.416 558.175 403.416C561.215 403.416 563.735 404.276 565.735 405.996C567.775 407.716 569.115 410.116 569.755 413.196H564.775C564.175 411.436 563.295 410.096 562.135 409.176C561.015 408.216 559.595 407.736 557.875 407.736C555.715 407.736 553.935 408.516 552.535 410.076C551.175 411.636 550.495 413.816 550.495 416.616Z" fill="white"/>
<path d="M216.867 570.858C214.907 570.858 213.127 570.538 211.527 569.898C209.967 569.218 208.647 568.298 207.567 567.138C206.487 565.938 205.647 564.538 205.047 562.938C204.447 561.298 204.147 559.538 204.147 557.658C204.147 555.698 204.467 553.918 205.107 552.318C205.747 550.678 206.627 549.278 207.747 548.118C208.907 546.958 210.247 546.058 211.767 545.418C213.327 544.778 215.007 544.458 216.807 544.458C220.327 544.458 223.227 545.618 225.507 547.938C227.827 550.218 228.987 553.258 228.987 557.058C228.987 557.378 228.967 557.698 228.927 558.018C228.927 558.338 228.907 558.638 228.867 558.918H209.127C209.327 561.278 210.107 563.158 211.467 564.558C212.827 565.958 214.627 566.658 216.867 566.658C218.547 566.658 219.987 566.278 221.187 565.518C222.427 564.758 223.227 563.758 223.587 562.518H228.507C227.787 565.038 226.407 567.058 224.367 568.578C222.367 570.098 219.867 570.858 216.867 570.858ZM216.807 548.658C214.847 548.658 213.207 549.198 211.887 550.278C210.567 551.318 209.707 552.898 209.307 555.018H224.007C223.847 552.978 223.107 551.418 221.787 550.338C220.467 549.218 218.807 548.658 216.807 548.658ZM252.738 545.358H257.898L247.698 569.958H243.078L232.878 545.358H238.158L245.478 564.438L252.738 545.358ZM274.347 570.858C272.387 570.858 270.607 570.538 269.007 569.898C267.447 569.218 266.127 568.298 265.047 567.138C263.967 565.938 263.127 564.538 262.527 562.938C261.927 561.298 261.627 559.538 261.627 557.658C261.627 555.698 261.947 553.918 262.587 552.318C263.227 550.678 264.107 549.278 265.227 548.118C266.387 546.958 267.727 546.058 269.247 545.418C270.807 544.778 272.487 544.458 274.287 544.458C277.807 544.458 280.707 545.618 282.987 547.938C285.307 550.218 286.467 553.258 286.467 557.058C286.467 557.378 286.447 557.698 286.407 558.018C286.407 558.338 286.387 558.638 286.347 558.918H266.607C266.807 561.278 267.587 563.158 268.947 564.558C270.307 565.958 272.107 566.658 274.347 566.658C276.027 566.658 277.467 566.278 278.667 565.518C279.907 564.758 280.707 563.758 281.067 562.518H285.987C285.267 565.038 283.887 567.058 281.847 568.578C279.847 570.098 277.347 570.858 274.347 570.858ZM274.287 548.658C272.327 548.658 270.687 549.198 269.367 550.278C268.047 551.318 267.187 552.898 266.787 555.018H281.487C281.327 552.978 280.587 551.418 279.267 550.338C277.947 549.218 276.287 548.658 274.287 548.658ZM293.779 569.958V545.358H298.579V550.818C299.459 548.658 300.719 547.058 302.359 546.018C304.039 544.978 305.839 544.458 307.759 544.458C310.439 544.458 312.599 545.418 314.239 547.338C315.879 549.218 316.699 551.898 316.699 555.378V569.958H311.899V556.578C311.899 554.178 311.439 552.318 310.519 550.998C309.599 549.638 308.119 548.958 306.079 548.958C303.919 548.958 302.119 549.738 300.679 551.298C299.279 552.858 298.579 555.198 298.579 558.318V569.958H293.779ZM321.942 549.558V545.358H328.782V535.158H333.522V545.358H342.642V549.558H333.522V560.838C333.522 562.758 333.922 564.158 334.722 565.038C335.522 565.918 336.782 566.358 338.502 566.358C339.182 566.358 339.862 566.318 340.542 566.238C341.222 566.118 341.922 565.978 342.642 565.818V570.438C341.842 570.598 341.062 570.698 340.302 570.738C339.542 570.818 338.822 570.858 338.142 570.858C334.942 570.858 332.582 570.098 331.062 568.578C329.542 567.018 328.782 564.658 328.782 561.498V549.558H321.942ZM368.103 552.678H363.243C363.203 551.318 362.703 550.278 361.743 549.558C360.783 548.798 359.443 548.418 357.723 548.418C356.243 548.418 355.063 548.678 354.183 549.198C353.303 549.718 352.863 550.438 352.863 551.358C352.863 552.238 353.223 552.938 353.943 553.458C354.703 553.978 355.643 554.378 356.763 554.658L362.763 556.098C364.443 556.498 365.883 557.198 367.083 558.198C368.323 559.158 368.943 560.638 368.943 562.638C368.943 564.918 368.023 566.858 366.183 568.458C364.343 570.058 361.803 570.858 358.563 570.858C355.443 570.858 352.803 570.038 350.643 568.398C348.483 566.758 347.383 564.618 347.343 561.978H352.203C352.363 563.658 353.043 564.898 354.243 565.698C355.443 566.498 356.943 566.898 358.743 566.898C360.463 566.898 361.763 566.558 362.643 565.878C363.523 565.198 363.963 564.378 363.963 563.418C363.963 562.538 363.603 561.858 362.883 561.378C362.163 560.858 361.243 560.458 360.123 560.178L354.963 558.918C353.243 558.518 351.683 557.778 350.283 556.698C348.883 555.578 348.183 553.938 348.183 551.778C348.183 549.578 349.023 547.818 350.703 546.498C352.423 545.138 354.783 544.458 357.783 544.458C360.863 544.458 363.323 545.178 365.163 546.618C367.003 548.018 367.983 550.038 368.103 552.678ZM378.511 570.558C377.431 570.558 376.491 570.178 375.691 569.418C374.931 568.658 374.551 567.718 374.551 566.598C374.551 565.558 374.931 564.678 375.691 563.958C376.491 563.198 377.431 562.818 378.511 562.818C379.591 562.818 380.511 563.198 381.271 563.958C382.071 564.678 382.471 565.558 382.471 566.598C382.471 567.718 382.071 568.658 381.271 569.418C380.511 570.178 379.591 570.558 378.511 570.558ZM390.283 569.958V529.158H395.083V550.818C395.963 548.658 397.223 547.058 398.863 546.018C400.543 544.978 402.343 544.458 404.263 544.458C406.943 544.458 409.103 545.418 410.743 547.338C412.383 549.218 413.203 551.898 413.203 555.378V569.958H408.403V556.578C408.403 554.178 407.943 552.318 407.023 550.998C406.103 549.638 404.623 548.958 402.583 548.958C400.423 548.958 398.623 549.738 397.183 551.298C395.783 552.858 395.083 555.198 395.083 558.318V569.958H390.283ZM420.126 557.658C420.126 555.538 420.486 553.658 421.206 552.018C421.926 550.338 422.846 548.958 423.966 547.878C425.086 546.758 426.346 545.918 427.746 545.358C429.146 544.758 430.546 544.458 431.946 544.458C433.666 544.458 435.346 544.938 436.986 545.898C438.666 546.818 439.986 548.218 440.946 550.098V545.358H445.746V569.958H440.946V565.218C439.986 567.098 438.666 568.518 436.986 569.478C435.346 570.398 433.666 570.858 431.946 570.858C430.546 570.858 429.146 570.558 427.746 569.958C426.346 569.398 425.086 568.578 423.966 567.498C422.846 566.378 421.926 564.998 421.206 563.358C420.486 561.678 420.126 559.778 420.126 557.658ZM432.786 548.958C430.426 548.958 428.546 549.798 427.146 551.478C425.746 553.158 425.046 555.218 425.046 557.658C425.046 560.098 425.746 562.158 427.146 563.838C428.546 565.518 430.426 566.358 432.786 566.358C435.066 566.358 437.006 565.598 438.606 564.078C440.246 562.558 441.066 560.418 441.066 557.658C441.066 554.898 440.266 552.758 438.666 551.238C437.066 549.718 435.106 548.958 432.786 548.958ZM457.976 557.658C457.976 560.458 458.656 562.638 460.016 564.198C461.416 565.758 463.196 566.538 465.356 566.538C466.996 566.538 468.376 566.098 469.496 565.218C470.656 564.338 471.556 563.038 472.196 561.318H477.176C476.456 564.318 475.096 566.658 473.096 568.338C471.136 570.018 468.656 570.858 465.656 570.858C461.976 570.858 458.956 569.638 456.596 567.198C454.236 564.718 453.056 561.538 453.056 557.658C453.056 553.818 454.236 550.658 456.596 548.178C458.956 545.698 461.976 544.458 465.656 544.458C468.696 544.458 471.216 545.318 473.216 547.038C475.256 548.758 476.596 551.158 477.236 554.238H472.256C471.656 552.478 470.776 551.138 469.616 550.218C468.496 549.258 467.076 548.778 465.356 548.778C463.196 548.778 461.416 549.558 460.016 551.118C458.656 552.678 457.976 554.858 457.976 557.658ZM483.974 569.958V529.158H488.774V555.198L499.274 545.358H505.454L493.034 556.938L506.414 569.958H500.114L488.774 558.858V569.958H483.974ZM514.87 557.658C514.87 560.458 515.55 562.638 516.91 564.198C518.31 565.758 520.09 566.538 522.25 566.538C523.89 566.538 525.27 566.098 526.39 565.218C527.55 564.338 528.45 563.038 529.09 561.318H534.07C533.35 564.318 531.99 566.658 529.99 568.338C528.03 570.018 525.55 570.858 522.55 570.858C518.87 570.858 515.85 569.638 513.49 567.198C511.13 564.718 509.95 561.538 509.95 557.658C509.95 553.818 511.13 550.658 513.49 548.178C515.85 545.698 518.87 544.458 522.55 544.458C525.59 544.458 528.11 545.318 530.11 547.038C532.15 548.758 533.49 551.158 534.13 554.238H529.15C528.55 552.478 527.67 551.138 526.51 550.218C525.39 549.258 523.97 548.778 522.25 548.778C520.09 548.778 518.31 549.558 516.91 551.118C515.55 552.678 514.87 554.858 514.87 557.658ZM540.869 569.958V529.158H545.669V569.958H540.869ZM559.077 545.358V560.058C559.077 562.058 559.477 563.618 560.277 564.738C561.117 565.818 562.457 566.358 564.297 566.358C566.297 566.358 567.937 565.578 569.217 564.018C570.537 562.458 571.197 560.118 571.197 556.998V545.358H575.997V569.958H571.197V564.678C570.357 566.798 569.157 568.358 567.597 569.358C566.037 570.358 564.337 570.858 562.497 570.858C560.057 570.858 558.077 570.018 556.557 568.338C555.037 566.658 554.277 564.298 554.277 561.258V545.358H559.077ZM610.61 557.658C610.61 559.778 610.25 561.678 609.53 563.358C608.85 564.998 607.97 566.378 606.89 567.498C605.81 568.578 604.57 569.398 603.17 569.958C601.81 570.558 600.45 570.858 599.09 570.858C597.33 570.858 595.59 570.398 593.87 569.478C592.15 568.518 590.79 567.078 589.79 565.158V569.958H584.99V529.158H589.79V550.158C590.79 548.238 592.15 546.818 593.87 545.898C595.59 544.938 597.33 544.458 599.09 544.458C600.45 544.458 601.81 544.758 603.17 545.358C604.57 545.918 605.81 546.758 606.89 547.878C607.97 548.958 608.85 550.338 609.53 552.018C610.25 553.658 610.61 555.538 610.61 557.658ZM597.95 548.958C595.67 548.958 593.71 549.718 592.07 551.238C590.47 552.758 589.67 554.898 589.67 557.658C589.67 560.418 590.47 562.558 592.07 564.078C593.67 565.598 595.63 566.358 597.95 566.358C600.31 566.358 602.19 565.518 603.59 563.838C604.99 562.158 605.69 560.098 605.69 557.658C605.69 555.218 604.99 553.158 603.59 551.478C602.19 549.798 600.31 548.958 597.95 548.958ZM634.359 545.358H639.519L629.319 569.958H624.699L614.499 545.358H619.779L627.099 564.438L634.359 545.358ZM647.448 541.278C646.368 541.278 645.428 540.898 644.628 540.138C643.868 539.378 643.488 538.438 643.488 537.318C643.488 536.238 643.868 535.318 644.628 534.558C645.428 533.798 646.368 533.418 647.448 533.418C648.528 533.418 649.448 533.798 650.208 534.558C651.008 535.318 651.408 536.238 651.408 537.318C651.408 538.438 651.008 539.378 650.208 540.138C649.448 540.898 648.528 541.278 647.448 541.278ZM645.048 569.958V545.358H649.848V569.958H645.048ZM655.516 549.558V545.358H662.356V535.158H667.096V545.358H676.216V549.558H667.096V560.838C667.096 562.758 667.496 564.158 668.296 565.038C669.096 565.918 670.356 566.358 672.076 566.358C672.756 566.358 673.436 566.318 674.116 566.238C674.796 566.118 675.496 565.978 676.216 565.818V570.438C675.416 570.598 674.636 570.698 673.876 570.738C673.116 570.818 672.396 570.858 671.716 570.858C668.516 570.858 666.156 570.098 664.636 568.578C663.116 567.018 662.356 564.658 662.356 561.498V549.558H655.516ZM686.257 557.658C686.257 560.458 686.937 562.638 688.297 564.198C689.697 565.758 691.477 566.538 693.637 566.538C695.277 566.538 696.657 566.098 697.777 565.218C698.937 564.338 699.837 563.038 700.477 561.318H705.457C704.737 564.318 703.377 566.658 701.377 568.338C699.417 570.018 696.937 570.858 693.937 570.858C690.257 570.858 687.237 569.638 684.877 567.198C682.517 564.718 681.337 561.538 681.337 557.658C681.337 553.818 682.517 550.658 684.877 548.178C687.237 545.698 690.257 544.458 693.937 544.458C696.977 544.458 699.497 545.318 701.497 547.038C703.537 548.758 704.877 551.158 705.517 554.238H700.537C699.937 552.478 699.057 551.138 697.897 550.218C696.777 549.258 695.357 548.778 693.637 548.778C691.477 548.778 689.697 549.558 688.297 551.118C686.937 552.678 686.257 554.858 686.257 557.658ZM719.035 560.058C719.035 558.298 719.355 556.578 719.995 554.898C720.675 553.218 721.575 551.758 722.695 550.518C723.815 549.238 725.115 548.218 726.595 547.458C728.115 546.658 729.715 546.258 731.395 546.258C733.035 546.258 734.535 546.678 735.895 547.518C737.255 548.318 738.235 549.638 738.835 551.478L739.615 547.098H743.875L741.235 561.498C740.955 562.978 741.075 564.078 741.595 564.798C742.115 565.478 743.055 565.818 744.415 565.818C746.375 565.818 747.895 564.918 748.975 563.118C750.055 561.318 750.595 558.858 750.595 555.738C750.595 553.738 750.195 551.798 749.395 549.918C748.635 548.038 747.515 546.378 746.035 544.938C744.555 543.498 742.735 542.338 740.575 541.458C738.455 540.578 736.035 540.138 733.315 540.138C730.475 540.138 727.835 540.598 725.395 541.518C722.995 542.438 720.915 543.758 719.155 545.478C717.435 547.158 716.075 549.198 715.075 551.598C714.075 553.998 713.575 556.658 713.575 559.578C713.575 564.618 715.035 568.678 717.955 571.758C720.915 574.838 724.775 576.378 729.535 576.378C731.135 576.378 732.855 576.158 734.695 575.718C736.535 575.278 738.475 574.478 740.515 573.318L741.835 576.798C739.795 578.078 737.635 578.938 735.355 579.378C733.115 579.858 731.095 580.098 729.295 580.098C726.295 580.098 723.575 579.618 721.135 578.658C718.735 577.698 716.675 576.338 714.955 574.578C713.235 572.818 711.915 570.678 710.995 568.158C710.075 565.638 709.615 562.838 709.615 559.758C709.615 556.398 710.195 553.298 711.355 550.458C712.555 547.578 714.195 545.118 716.275 543.078C718.355 540.998 720.855 539.378 723.775 538.218C726.695 537.018 729.875 536.418 733.315 536.418C736.675 536.418 739.675 536.938 742.315 537.978C744.995 538.978 747.235 540.358 749.035 542.118C750.835 543.878 752.195 545.958 753.115 548.358C754.075 550.758 754.555 553.338 754.555 556.098C754.555 560.178 753.615 563.438 751.735 565.878C749.855 568.318 747.375 569.538 744.295 569.538C742.455 569.538 740.875 569.038 739.555 568.038C738.235 566.998 737.415 565.738 737.095 564.258C736.055 565.938 734.735 567.258 733.135 568.218C731.535 569.138 729.795 569.598 727.915 569.598C726.755 569.598 725.635 569.398 724.555 568.998C723.515 568.598 722.575 567.998 721.735 567.198C720.935 566.398 720.275 565.418 719.755 564.258C719.275 563.058 719.035 561.658 719.035 560.058ZM731.875 550.278C730.555 550.278 729.355 550.558 728.275 551.118C727.235 551.678 726.355 552.418 725.635 553.338C724.955 554.218 724.415 555.218 724.015 556.338C723.655 557.418 723.475 558.498 723.475 559.578C723.475 561.338 723.975 562.798 724.975 563.958C726.015 565.078 727.475 565.638 729.355 565.638C730.595 565.638 731.735 565.378 732.775 564.858C733.855 564.338 734.775 563.658 735.535 562.818C736.335 561.978 736.935 560.998 737.335 559.878C737.775 558.718 737.995 557.518 737.995 556.278C737.995 554.358 737.415 552.878 736.255 551.838C735.135 550.798 733.675 550.278 731.875 550.278ZM759.33 557.658C759.33 555.538 759.67 553.658 760.35 552.018C761.07 550.338 761.97 548.958 763.05 547.878C764.13 546.758 765.35 545.918 766.71 545.358C768.11 544.758 769.49 544.458 770.85 544.458C772.61 544.458 774.35 544.938 776.07 545.898C777.79 546.818 779.15 548.238 780.15 550.158V545.658H784.95V567.798C784.95 571.958 783.83 575.258 781.59 577.698C779.39 580.138 776.27 581.358 772.23 581.358C769.35 581.358 766.77 580.518 764.49 578.838C762.21 577.198 760.55 574.818 759.51 571.698L763.65 569.718C764.65 572.318 765.83 574.198 767.19 575.358C768.55 576.558 770.23 577.158 772.23 577.158C774.59 577.158 776.49 576.418 777.93 574.938C779.41 573.498 780.15 571.418 780.15 568.698V566.298L780.21 564.978C779.25 566.938 777.89 568.418 776.13 569.418C774.41 570.378 772.65 570.858 770.85 570.858C769.49 570.858 768.11 570.558 766.71 569.958C765.35 569.398 764.13 568.578 763.05 567.498C761.97 566.378 761.07 564.998 760.35 563.358C759.67 561.678 759.33 559.778 759.33 557.658ZM771.99 548.958C769.63 548.958 767.75 549.798 766.35 551.478C764.95 553.158 764.25 555.218 764.25 557.658C764.25 560.098 764.95 562.158 766.35 563.838C767.75 565.518 769.63 566.358 771.99 566.358C774.27 566.358 776.21 565.598 777.81 564.078C779.45 562.558 780.27 560.418 780.27 557.658C780.27 554.898 779.47 552.758 777.87 551.238C776.27 549.718 774.31 548.958 771.99 548.958ZM793.935 569.958V545.358H798.735V550.758C799.495 548.798 800.615 547.258 802.095 546.138C803.615 545.018 805.395 544.458 807.435 544.458C809.435 544.458 811.155 545.018 812.595 546.138C814.035 547.258 815.055 548.858 815.655 550.938C816.415 548.898 817.595 547.318 819.195 546.198C820.835 545.038 822.755 544.458 824.955 544.458C827.595 544.458 829.715 545.418 831.315 547.338C832.955 549.218 833.775 551.898 833.775 555.378V569.958H828.975V556.578C828.975 554.178 828.515 552.318 827.595 550.998C826.675 549.638 825.195 548.958 823.155 548.958C821.155 548.958 819.495 549.738 818.175 551.298C816.895 552.858 816.255 555.198 816.255 558.318V569.958H811.455V556.578C811.455 554.178 810.995 552.318 810.075 550.998C809.155 549.638 807.675 548.958 805.635 548.958C803.635 548.958 801.975 549.738 800.655 551.298C799.375 552.858 798.735 555.198 798.735 558.318V569.958H793.935ZM840.653 557.658C840.653 555.538 841.013 553.658 841.733 552.018C842.453 550.338 843.373 548.958 844.493 547.878C845.613 546.758 846.873 545.918 848.273 545.358C849.673 544.758 851.073 544.458 852.473 544.458C854.193 544.458 855.873 544.938 857.513 545.898C859.193 546.818 860.513 548.218 861.473 550.098V545.358H866.273V569.958H861.473V565.218C860.513 567.098 859.193 568.518 857.513 569.478C855.873 570.398 854.193 570.858 852.473 570.858C851.073 570.858 849.673 570.558 848.273 569.958C846.873 569.398 845.613 568.578 844.493 567.498C843.373 566.378 842.453 564.998 841.733 563.358C841.013 561.678 840.653 559.778 840.653 557.658ZM853.313 548.958C850.953 548.958 849.073 549.798 847.673 551.478C846.273 553.158 845.573 555.218 845.573 557.658C845.573 560.098 846.273 562.158 847.673 563.838C849.073 565.518 850.953 566.358 853.313 566.358C855.593 566.358 857.533 565.598 859.133 564.078C860.773 562.558 861.593 560.418 861.593 557.658C861.593 554.898 860.793 552.758 859.193 551.238C857.593 549.718 855.633 548.958 853.313 548.958ZM877.663 541.278C876.583 541.278 875.643 540.898 874.843 540.138C874.083 539.378 873.703 538.438 873.703 537.318C873.703 536.238 874.083 535.318 874.843 534.558C875.643 533.798 876.583 533.418 877.663 533.418C878.743 533.418 879.663 533.798 880.423 534.558C881.223 535.318 881.623 536.238 881.623 537.318C881.623 538.438 881.223 539.378 880.423 540.138C879.663 540.898 878.743 541.278 877.663 541.278ZM875.263 569.958V545.358H880.063V569.958H875.263ZM889.091 569.958V529.158H893.891V569.958H889.091ZM905.679 570.558C904.599 570.558 903.659 570.178 902.859 569.418C902.099 568.658 901.719 567.718 901.719 566.598C901.719 565.558 902.099 564.678 902.859 563.958C903.659 563.198 904.599 562.818 905.679 562.818C906.759 562.818 907.679 563.198 908.439 563.958C909.239 564.678 909.639 565.558 909.639 566.598C909.639 567.718 909.239 568.658 908.439 569.418C907.679 570.178 906.759 570.558 905.679 570.558ZM920.691 557.658C920.691 560.458 921.371 562.638 922.731 564.198C924.131 565.758 925.911 566.538 928.071 566.538C929.711 566.538 931.091 566.098 932.211 565.218C933.371 564.338 934.271 563.038 934.911 561.318H939.891C939.171 564.318 937.811 566.658 935.811 568.338C933.851 570.018 931.371 570.858 928.371 570.858C924.691 570.858 921.671 569.638 919.311 567.198C916.951 564.718 915.771 561.538 915.771 557.658C915.771 553.818 916.951 550.658 919.311 548.178C921.671 545.698 924.691 544.458 928.371 544.458C931.411 544.458 933.931 545.318 935.931 547.038C937.971 548.758 939.311 551.158 939.951 554.238H934.971C934.371 552.478 933.491 551.138 932.331 550.218C931.211 549.258 929.791 548.778 928.071 548.778C925.911 548.778 924.131 549.558 922.731 551.118C921.371 552.678 920.691 554.858 920.691 557.658ZM958.209 570.858C956.369 570.858 954.629 570.538 952.989 569.898C951.389 569.258 949.989 568.358 948.789 567.198C947.589 566.038 946.629 564.658 945.909 563.058C945.229 561.418 944.889 559.618 944.889 557.658C944.889 555.698 945.229 553.918 945.909 552.318C946.629 550.678 947.589 549.278 948.789 548.118C950.029 546.958 951.449 546.058 953.049 545.418C954.689 544.778 956.409 544.458 958.209 544.458C960.009 544.458 961.709 544.778 963.309 545.418C964.949 546.058 966.369 546.958 967.569 548.118C968.809 549.278 969.769 550.678 970.449 552.318C971.169 553.918 971.529 555.698 971.529 557.658C971.529 559.618 971.169 561.418 970.449 563.058C969.769 564.658 968.829 566.038 967.629 567.198C966.429 568.358 965.009 569.258 963.369 569.898C961.769 570.538 960.049 570.858 958.209 570.858ZM958.209 566.538C960.649 566.538 962.649 565.758 964.209 564.198C965.809 562.638 966.609 560.458 966.609 557.658C966.609 554.858 965.809 552.678 964.209 551.118C962.609 549.558 960.609 548.778 958.209 548.778C955.809 548.778 953.809 549.558 952.209 551.118C950.609 552.678 949.809 554.858 949.809 557.658C949.809 560.458 950.589 562.638 952.149 564.198C953.749 565.758 955.769 566.538 958.209 566.538ZM978.74 569.958V545.358H983.54V550.758C984.3 548.798 985.42 547.258 986.9 546.138C988.42 545.018 990.2 544.458 992.24 544.458C994.24 544.458 995.96 545.018 997.4 546.138C998.84 547.258 999.86 548.858 1000.46 550.938C1001.22 548.898 1002.4 547.318 1004 546.198C1005.64 545.038 1007.56 544.458 1009.76 544.458C1012.4 544.458 1014.52 545.418 1016.12 547.338C1017.76 549.218 1018.58 551.898 1018.58 555.378V569.958H1013.78V556.578C1013.78 554.178 1013.32 552.318 1012.4 550.998C1011.48 549.638 1010 548.958 1007.96 548.958C1005.96 548.958 1004.3 549.738 1002.98 551.298C1001.7 552.858 1001.06 555.198 1001.06 558.318V569.958H996.26V556.578C996.26 554.178 995.8 552.318 994.88 550.998C993.96 549.638 992.48 548.958 990.44 548.958C988.44 548.958 986.78 549.738 985.46 551.298C984.18 552.858 983.54 555.198 983.54 558.318V569.958H978.74Z" fill="white"/>
 <a href=""><path d="M205.847 711V676.35H214.262C217.782 676.35 220.862 676.79 223.502 677.67C226.178 678.55 228.378 679.76 230.102 681.3C231.862 682.84 233.182 684.673 234.062 686.8C234.942 688.927 235.382 691.218 235.382 693.675C235.382 696.132 234.942 698.423 234.062 700.55C233.182 702.677 231.862 704.51 230.102 706.05C228.378 707.59 226.178 708.8 223.502 709.68C220.862 710.56 217.782 711 214.262 711H205.847ZM214.812 706.875C217.232 706.875 219.432 706.618 221.412 706.105C223.392 705.592 225.078 704.803 226.472 703.74C227.902 702.64 229.002 701.265 229.772 699.615C230.542 697.928 230.927 695.948 230.927 693.675C230.927 691.402 230.542 689.44 229.772 687.79C229.002 686.103 227.902 684.728 226.472 683.665C225.078 682.565 223.392 681.758 221.412 681.245C219.432 680.732 217.232 680.475 214.812 680.475H210.247V706.875H214.812ZM243.436 684.71C242.446 684.71 241.584 684.362 240.851 683.665C240.154 682.968 239.806 682.107 239.806 681.08C239.806 680.09 240.154 679.247 240.851 678.55C241.584 677.853 242.446 677.505 243.436 677.505C244.426 677.505 245.269 677.853 245.966 678.55C246.699 679.247 247.066 680.09 247.066 681.08C247.066 682.107 246.699 682.968 245.966 683.665C245.269 684.362 244.426 684.71 243.436 684.71ZM241.236 711V688.45H245.636V711H241.236ZM271.017 695.16H266.562C266.525 693.913 266.067 692.96 265.187 692.3C264.307 691.603 263.078 691.255 261.502 691.255C260.145 691.255 259.063 691.493 258.257 691.97C257.45 692.447 257.047 693.107 257.047 693.95C257.047 694.757 257.377 695.398 258.037 695.875C258.733 696.352 259.595 696.718 260.622 696.975L266.122 698.295C267.662 698.662 268.982 699.303 270.082 700.22C271.218 701.1 271.787 702.457 271.787 704.29C271.787 706.38 270.943 708.158 269.257 709.625C267.57 711.092 265.242 711.825 262.272 711.825C259.412 711.825 256.992 711.073 255.012 709.57C253.032 708.067 252.023 706.105 251.987 703.685H256.442C256.588 705.225 257.212 706.362 258.312 707.095C259.412 707.828 260.787 708.195 262.437 708.195C264.013 708.195 265.205 707.883 266.012 707.26C266.818 706.637 267.222 705.885 267.222 705.005C267.222 704.198 266.892 703.575 266.232 703.135C265.572 702.658 264.728 702.292 263.702 702.035L258.972 700.88C257.395 700.513 255.965 699.835 254.682 698.845C253.398 697.818 252.757 696.315 252.757 694.335C252.757 692.318 253.527 690.705 255.067 689.495C256.643 688.248 258.807 687.625 261.557 687.625C264.38 687.625 266.635 688.285 268.322 689.605C270.008 690.888 270.907 692.74 271.017 695.16ZM280.998 699.725C280.998 702.292 281.621 704.29 282.868 705.72C284.151 707.15 285.783 707.865 287.763 707.865C289.266 707.865 290.531 707.462 291.558 706.655C292.621 705.848 293.446 704.657 294.033 703.08H298.598C297.938 705.83 296.691 707.975 294.858 709.515C293.061 711.055 290.788 711.825 288.038 711.825C284.664 711.825 281.896 710.707 279.733 708.47C277.569 706.197 276.488 703.282 276.488 699.725C276.488 696.205 277.569 693.308 279.733 691.035C281.896 688.762 284.664 687.625 288.038 687.625C290.824 687.625 293.134 688.413 294.968 689.99C296.838 691.567 298.066 693.767 298.653 696.59H294.088C293.538 694.977 292.731 693.748 291.668 692.905C290.641 692.025 289.339 691.585 287.763 691.585C285.783 691.585 284.151 692.3 282.868 693.73C281.621 695.16 280.998 697.158 280.998 699.725ZM315.39 711.825C313.703 711.825 312.108 711.532 310.605 710.945C309.138 710.358 307.855 709.533 306.755 708.47C305.655 707.407 304.775 706.142 304.115 704.675C303.491 703.172 303.18 701.522 303.18 699.725C303.18 697.928 303.491 696.297 304.115 694.83C304.775 693.327 305.655 692.043 306.755 690.98C307.891 689.917 309.193 689.092 310.66 688.505C312.163 687.918 313.74 687.625 315.39 687.625C317.04 687.625 318.598 687.918 320.065 688.505C321.568 689.092 322.87 689.917 323.97 690.98C325.106 692.043 325.986 693.327 326.61 694.83C327.27 696.297 327.6 697.928 327.6 699.725C327.6 701.522 327.27 703.172 326.61 704.675C325.986 706.142 325.125 707.407 324.025 708.47C322.925 709.533 321.623 710.358 320.12 710.945C318.653 711.532 317.076 711.825 315.39 711.825ZM315.39 707.865C317.626 707.865 319.46 707.15 320.89 705.72C322.356 704.29 323.09 702.292 323.09 699.725C323.09 697.158 322.356 695.16 320.89 693.73C319.423 692.3 317.59 691.585 315.39 691.585C313.19 691.585 311.356 692.3 309.89 693.73C308.423 695.16 307.69 697.158 307.69 699.725C307.69 702.292 308.405 704.29 309.835 705.72C311.301 707.15 313.153 707.865 315.39 707.865ZM334.209 711V688.45H338.554V693.235C339.361 691.365 340.461 689.972 341.854 689.055C343.284 688.102 344.898 687.625 346.694 687.625C347.061 687.625 347.391 687.662 347.684 687.735C347.978 687.772 348.234 687.808 348.454 687.845V692.85C347.868 692.74 347.263 692.648 346.639 692.575C346.053 692.502 345.466 692.465 344.879 692.465C342.643 692.465 341.029 693.162 340.039 694.555C339.049 695.948 338.554 698.222 338.554 701.375V711H334.209ZM350.985 699.725C350.985 697.782 351.297 696.058 351.92 694.555C352.58 693.015 353.405 691.75 354.395 690.76C355.385 689.733 356.503 688.963 357.75 688.45C359.033 687.9 360.298 687.625 361.545 687.625C363.158 687.625 364.753 688.065 366.33 688.945C367.907 689.788 369.153 691.09 370.07 692.85V673.6H374.47V711H370.07V706.6C369.153 708.36 367.907 709.68 366.33 710.56C364.753 711.403 363.158 711.825 361.545 711.825C360.298 711.825 359.033 711.55 357.75 711C356.503 710.487 355.385 709.735 354.395 708.745C353.405 707.718 352.58 706.453 351.92 704.95C351.297 703.41 350.985 701.668 350.985 699.725ZM362.59 691.75C360.427 691.75 358.703 692.52 357.42 694.06C356.137 695.6 355.495 697.488 355.495 699.725C355.495 701.962 356.137 703.85 357.42 705.39C358.703 706.93 360.427 707.7 362.59 707.7C364.717 707.7 366.513 707.003 367.98 705.61C369.447 704.217 370.18 702.255 370.18 699.725C370.18 697.195 369.428 695.233 367.925 693.84C366.458 692.447 364.68 691.75 362.59 691.75Z" fill="white"/></a>
<path d="M201.447 717.875H378.595V720.625H201.447V717.875Z" fill="white"/>
<path d="M156.404 396.749C156.353 392.932 155.637 389.152 154.289 385.58C153.119 382.567 151.333 379.831 149.044 377.546C146.756 375.261 144.015 373.478 140.996 372.31C137.464 370.986 133.733 370.271 129.961 370.193C125.104 369.976 123.564 369.916 111.236 369.916C98.9084 369.916 97.3282 369.916 92.507 370.193C88.7367 370.271 85.007 370.987 81.4764 372.31C78.4578 373.477 75.7163 375.26 73.4275 377.545C71.1386 379.83 69.3527 382.567 68.1841 385.58C66.8555 389.104 66.1401 392.828 66.0688 396.592C65.8518 401.446 65.7861 402.983 65.7861 415.291C65.7861 427.598 65.7861 429.171 66.0688 433.989C66.1446 437.759 66.8564 441.478 68.1841 445.011C69.3547 448.024 71.1419 450.76 73.4315 453.044C75.7212 455.328 78.4629 457.11 81.4815 458.276C85.0023 459.653 88.7328 460.42 92.5121 460.544C97.3737 460.761 98.9134 460.827 111.241 460.827C123.57 460.827 125.15 460.827 129.971 460.544C133.743 460.47 137.475 459.756 141.007 458.433C144.024 457.264 146.764 455.48 149.053 453.195C151.341 450.911 153.128 448.175 154.299 445.163C155.627 441.635 156.338 437.915 156.414 434.14C156.631 429.292 156.697 427.755 156.697 415.442C156.687 403.134 156.687 401.572 156.404 396.749ZM111.206 438.565C98.3127 438.565 87.8676 428.138 87.8676 415.266C87.8676 402.393 98.3127 391.966 111.206 391.966C117.396 391.966 123.332 394.421 127.709 398.79C132.086 403.16 134.545 409.086 134.545 415.266C134.545 421.445 132.086 427.371 127.709 431.741C123.332 436.11 117.396 438.565 111.206 438.565ZM135.474 396.537C134.759 396.538 134.051 396.398 133.39 396.125C132.73 395.852 132.129 395.452 131.624 394.947C131.118 394.443 130.718 393.843 130.444 393.184C130.171 392.524 130.031 391.818 130.031 391.104C130.031 390.391 130.172 389.685 130.445 389.026C130.719 388.367 131.12 387.768 131.625 387.264C132.13 386.76 132.729 386.36 133.389 386.087C134.049 385.814 134.757 385.673 135.471 385.673C136.185 385.673 136.893 385.814 137.553 386.087C138.213 386.36 138.812 386.76 139.317 387.264C139.823 387.768 140.223 388.367 140.497 389.026C140.77 389.685 140.911 390.391 140.911 391.104C140.911 394.108 138.477 396.537 135.474 396.537Z" fill="white"/>
<path d="M111.206 430.4C119.579 430.4 126.366 423.624 126.366 415.266C126.366 406.907 119.579 400.131 111.206 400.131C102.833 400.131 96.0459 406.907 96.0459 415.266C96.0459 423.624 102.833 430.4 111.206 430.4Z" fill="white"/>
<path d="M156.697 540.96L156.276 576.567C156.276 580.119 154.787 583.525 152.135 586.036C149.483 588.547 145.887 589.958 142.137 589.958H79.9252C76.1753 589.958 72.579 588.547 69.9274 586.036C67.2758 583.525 65.7861 580.119 65.7861 576.567L66.2067 540.96L110.015 565.374C110.45 565.617 110.946 565.745 111.452 565.745C111.957 565.745 112.453 565.617 112.888 565.374L156.697 540.96ZM142.137 520.325C145.616 520.324 148.973 521.539 151.566 523.735C154.159 525.932 155.806 528.957 156.191 532.232L111.031 557.391L65.871 532.232C66.2564 528.957 67.9032 525.932 70.4961 523.735C73.0891 521.539 76.4462 520.324 79.9252 520.325H142.137Z" fill="white"/>
<path d="M101.839 693.044C98.8749 693.044 96.5399 695.641 96.5399 698.813C96.5399 701.974 98.9296 704.582 101.839 704.582C104.797 704.582 107.132 701.974 107.132 698.813C107.192 695.636 104.797 693.044 101.839 693.044ZM120.803 693.044C117.839 693.044 115.504 695.641 115.504 698.813C115.504 701.974 117.894 704.582 120.803 704.582C123.761 704.582 126.096 701.974 126.096 698.813C126.091 695.636 123.761 693.044 120.803 693.044Z" fill="white"/>
<path d="M146.05 649.456H76.433C75.0312 649.46 73.6439 649.739 72.3502 650.279C71.0565 650.819 69.8819 651.608 68.8932 652.602C67.9046 653.595 67.1213 654.774 66.5882 656.071C66.0551 657.367 65.7826 658.756 65.7862 660.158V730.392C65.7862 736.315 70.5655 741.094 76.433 741.094H135.343L132.582 731.475L139.236 737.66L145.52 743.478L156.697 753.354V660.158C156.7 658.756 156.428 657.367 155.895 656.071C155.362 654.774 154.578 653.595 153.59 652.602C152.601 651.608 151.426 650.819 150.133 650.279C148.839 649.739 147.452 649.46 146.05 649.456ZM125.992 717.301C125.992 717.301 124.122 715.07 122.569 713.085C129.372 711.16 131.969 706.906 131.969 706.906C129.836 708.306 127.813 709.301 125.992 709.979C119.363 712.754 112.062 713.511 105.005 712.156C102.397 711.643 99.8417 710.893 97.3711 709.914C96.0681 709.419 94.8017 708.832 93.5816 708.158C93.423 708.043 93.2699 708 93.1168 707.896C93.0348 707.857 92.9622 707.801 92.9035 707.732C91.9684 707.218 91.4489 706.857 91.4489 706.857C91.4489 706.857 93.9425 711.013 100.543 712.987C98.9842 714.955 97.0594 717.301 97.0594 717.301C85.5814 716.935 81.2232 709.405 81.2232 709.405C81.2232 692.678 88.7038 679.122 88.7038 679.122C96.1845 673.506 103.299 673.664 103.299 673.664L103.818 674.288C94.4674 676.994 90.1529 681.096 90.1529 681.096C90.1529 681.096 91.3013 680.472 93.2207 679.592C98.7765 677.153 103.189 676.475 105.01 676.316C105.322 676.267 105.584 676.212 105.896 676.212C114.904 674.999 124.063 676.71 132.024 681.096C132.024 681.096 127.917 677.202 119.086 674.501L119.813 673.67C119.813 673.67 126.933 673.511 134.408 679.127C134.408 679.127 141.889 692.683 141.889 709.411C141.889 709.405 137.476 716.935 125.992 717.301Z" fill="white"/>
<path d="M838 138.659L837.975 138.057V58.9939L827.81 59.1916L827.63 26.0878H818.788L818.607 15.4514H809.403V5.21038L790.815 5.01275L790.454 0H752.925L752.744 4.81511L735.06 5.01275V15.2448L725.314 15.0472V25.4859H715.215L715.034 57.5925L708 57.3859L708.173 138.461H715.215L715.256 130.035H725.142V118.59L735.126 118.527V129.226L744.51 129.361L744.625 138.865L762.071 139V118.527L780.355 118.392L780.231 138.865L801.284 139L801.408 128.696H809.946L809.855 118.392H818.516L818.607 128.624L827.63 128.427V138.766L838 138.659Z" fill="#F37721"/>
<path d="M810.488 39.0952H800.019V29.2314H780.897V39.0952H772.598V69.2793H780.897V79.9246H800.019V69.2793H810.488V39.0952Z" fill="white"/>
<path d="M754.19 39.7784H743.721V30.0225H724.599V39.7784H716.3V69.6482H724.599V80.1857H743.721V69.6482H754.19V39.7784Z" fill="white"/>
<path d="M800.054 28.8145H780.378V47.3478H800.054V28.8145Z" fill="#2F55A6"/>
<path d="M743.838 30.1382H724.162V48.6715H743.838V30.1382Z" fill="#2F55A6"/>
<path d="M1023 138.667L1022.97 138.06V58.9927L1012.8 59.1978L1012.62 26.0823H1003.78L1003.6 15.4511H994.399V5.21304L975.818 5.01647L975.459 0H937.923L937.743 4.81138L920.062 5.01647V15.246L910.322 15.0494V25.4841H900.215L900.035 57.5912L893 57.3861L893.18 138.462H900.215L900.262 130.035H910.142V118.592L920.124 118.532V129.232L929.504 129.369L929.629 138.863L947.068 139V118.532L965.352 118.396L965.234 138.863L986.277 139L986.402 128.694H994.938L994.852 118.396H1003.51L1003.6 128.634L1012.62 128.429V138.761L1023 138.667Z" fill="#FF2E0A"/>
<path d="M995.485 36.0979H985.019V26.2358H965.891V36.0979H957.59V66.2736H965.891V76.9304H985.019V66.2736H995.485V36.0979Z" fill="white"/>
<path d="M939.188 36.7819H928.722V27.0225H909.602V36.7819H901.301V66.65H909.602V77.1872H928.722V66.65H939.188V36.7819Z" fill="white"/>
<path d="M939.378 49.6431H921.811V68.1764H939.378V49.6431Z" fill="#2F55A6"/>
<path d="M995.595 49.6431H978.027V68.1764H995.595V49.6431Z" fill="#2F55A6"/>
</svg>
                 