<svg width="471" height="523" viewBox="0 0 471 523" fill="none" xmlns="http://www.w3.org/2000/svg">
<path d="M37.1861 32.6292H49.7461C48.9461 36.8426 47.7195 40.3359 46.0661 43.1092C44.4661 45.8292 42.5728 47.9892 40.3861 49.5892C38.2528 51.1359 35.8795 52.2026 33.2661 52.7892C30.6528 53.3759 28.0128 53.6692 25.3461 53.6692C21.7195 53.6692 18.3595 53.0026 15.2661 51.6692C12.1728 50.3359 9.5328 48.5226 7.34613 46.2292C5.15947 43.8826 3.42613 41.0826 2.14613 37.8292C0.919466 34.5759 0.306133 31.0559 0.306133 27.2692C0.306133 23.4826 0.8928 19.9626 2.06613 16.7092C3.2928 13.4559 4.9728 10.6826 7.10613 8.38924C9.2928 6.04257 11.9328 4.20257 15.0261 2.86924C18.1195 1.5359 21.5595 0.869235 25.3461 0.869235C28.0128 0.869235 30.6528 1.18924 33.2661 1.82924C35.8795 2.46924 38.2528 3.58923 40.3861 5.18924C42.5728 6.78924 44.4661 8.94923 46.0661 11.6692C47.7195 14.3892 48.9461 17.8026 49.7461 21.9092H37.0261C36.2795 18.0692 34.7595 15.4826 32.4661 14.1492C30.2261 12.7626 27.8528 12.0692 25.3461 12.0692C21.5595 12.0692 18.4928 13.5092 16.1461 16.3892C13.8528 19.2692 12.7061 22.8959 12.7061 27.2692C12.7061 31.6426 13.8795 35.2692 16.2261 38.1492C18.5728 41.0292 21.6128 42.4692 25.3461 42.4692C27.7461 42.4692 30.0928 41.8559 32.3861 40.6292C34.7328 39.4026 36.3328 36.7359 37.1861 32.6292ZM72.4824 53.6692C69.8157 53.6692 67.3091 53.2159 64.9624 52.3092C62.6157 51.4026 60.5624 50.1226 58.8024 48.4692C57.0957 46.8159 55.7357 44.8426 54.7224 42.5492C53.709 40.2026 53.2024 37.6426 53.2024 34.8692C53.2024 32.0959 53.709 29.5626 54.7224 27.2692C55.7357 24.9226 57.1224 22.9226 58.8824 21.2692C60.6424 19.6159 62.6957 18.3359 65.0424 17.4292C67.3891 16.5226 69.8691 16.0692 72.4824 16.0692C75.0957 16.0692 77.5757 16.5226 79.9224 17.4292C82.269 18.3359 84.3224 19.6159 86.0824 21.2692C87.8424 22.9226 89.2291 24.9226 90.2424 27.2692C91.2557 29.5626 91.7624 32.0959 91.7624 34.8692C91.7624 37.6426 91.2557 40.2026 90.2424 42.5492C89.2291 44.8426 87.8424 46.8159 86.0824 48.4692C84.3757 50.1226 82.3491 51.4026 80.0024 52.3092C77.6557 53.2159 75.1491 53.6692 72.4824 53.6692ZM72.4824 43.2692C74.7224 43.2692 76.4291 42.4959 77.6024 40.9492C78.8291 39.3492 79.4424 37.3226 79.4424 34.8692C79.4424 32.4159 78.8291 30.4159 77.6024 28.8692C76.3757 27.2692 74.6691 26.4692 72.4824 26.4692C70.2957 26.4692 68.5891 27.2692 67.3624 28.8692C66.1357 30.4159 65.5224 32.4159 65.5224 34.8692C65.5224 37.3226 66.1091 39.3492 67.2824 40.9492C68.5091 42.4959 70.2424 43.2692 72.4824 43.2692ZM97.1518 52.4692V17.2692H109.472V21.9092C110.592 20.0426 112.032 18.6026 113.792 17.5892C115.552 16.5759 117.552 16.0692 119.792 16.0692C123.898 16.0692 127.152 17.4826 129.552 20.3092C131.952 23.1359 133.152 27.0292 133.152 31.9892V52.4692H120.832V33.1892C120.832 30.7892 120.378 29.0026 119.472 27.8292C118.565 26.6559 117.258 26.0692 115.552 26.0692C113.685 26.0692 112.192 26.6559 111.072 27.8292C110.005 28.9492 109.472 30.7359 109.472 33.1892V52.4692H97.1518ZM136.208 26.8692V17.2692H143.648V3.66924H155.968V17.2692H166.128V26.8692H155.968V38.5492C155.968 40.2559 156.368 41.4026 157.168 41.9892C157.968 42.5759 159.141 42.8692 160.688 42.8692C161.595 42.8692 162.528 42.7892 163.488 42.6292C164.448 42.4692 165.328 42.3359 166.128 42.2292V52.8692C164.955 53.1359 163.648 53.3226 162.208 53.4292C160.821 53.5892 159.488 53.6692 158.208 53.6692C153.408 53.6692 149.781 52.5759 147.328 50.3892C144.875 48.2026 143.648 44.5492 143.648 39.4292V26.8692H136.208ZM170.472 34.8692C170.472 31.8826 170.872 29.2159 171.672 26.8692C172.525 24.5226 173.618 22.5492 174.952 20.9492C176.338 19.3492 177.965 18.1492 179.832 17.3492C181.698 16.4959 183.645 16.0692 185.672 16.0692C188.018 16.0692 190.205 16.5492 192.232 17.5092C194.258 18.4692 195.912 19.9359 197.192 21.9092V17.2692H209.512V52.4692H197.192V47.8292C195.912 49.8026 194.258 51.2692 192.232 52.2292C190.205 53.1892 188.018 53.6692 185.672 53.6692C183.645 53.6692 181.698 53.2692 179.832 52.4692C177.965 51.6159 176.338 50.3892 174.952 48.7892C173.618 47.1892 172.525 45.2159 171.672 42.8692C170.872 40.5226 170.472 37.8559 170.472 34.8692ZM190.072 26.0692C187.778 26.0692 185.992 26.9226 184.712 28.6292C183.432 30.2826 182.792 32.3626 182.792 34.8692C182.792 37.3759 183.432 39.4826 184.712 41.1892C185.992 42.8426 187.778 43.6692 190.072 43.6692C192.205 43.6692 193.938 42.8959 195.272 41.3492C196.658 39.8026 197.352 37.6426 197.352 34.8692C197.352 32.0959 196.685 29.9359 195.352 28.3892C194.018 26.8426 192.258 26.0692 190.072 26.0692ZM227.163 34.8692C227.163 37.9092 227.83 40.2026 229.163 41.7492C230.496 43.2959 232.07 44.0692 233.883 44.0692C235.323 44.0692 236.603 43.5892 237.723 42.6292C238.843 41.6692 239.51 40.2292 239.723 38.3092H252.363C251.99 41.1892 251.163 43.6159 249.883 45.5892C248.603 47.5626 247.083 49.1626 245.323 50.3892C243.616 51.5626 241.75 52.3892 239.723 52.8692C237.696 53.4026 235.75 53.6692 233.883 53.6692C231.536 53.6692 229.216 53.2959 226.923 52.5492C224.63 51.8026 222.576 50.6826 220.763 49.1892C219.003 47.6426 217.563 45.6692 216.443 43.2692C215.376 40.8692 214.843 38.0692 214.843 34.8692C214.843 31.6692 215.376 28.8692 216.443 26.4692C217.563 24.0692 219.003 22.1226 220.763 20.6292C222.576 19.0826 224.63 17.9359 226.923 17.1892C229.216 16.4426 231.536 16.0692 233.883 16.0692C235.75 16.0692 237.696 16.3359 239.723 16.8692C241.75 17.3492 243.616 18.2026 245.323 19.4292C247.03 20.6026 248.523 22.1759 249.803 24.1492C251.083 26.1226 251.936 28.5492 252.363 31.4292H239.723C239.563 29.4559 238.896 28.0159 237.723 27.1092C236.603 26.1492 235.323 25.6692 233.883 25.6692C232.07 25.6692 230.496 26.4426 229.163 27.9892C227.83 29.5359 227.163 31.8292 227.163 34.8692ZM253.786 26.8692V17.2692H261.226V3.66924H273.546V17.2692H283.706V26.8692H273.546V38.5492C273.546 40.2559 273.946 41.4026 274.746 41.9892C275.546 42.5759 276.719 42.8692 278.266 42.8692C279.173 42.8692 280.106 42.7892 281.066 42.6292C282.026 42.4692 282.906 42.3359 283.706 42.2292V52.8692C282.533 53.1359 281.226 53.3226 279.786 53.4292C278.399 53.5892 277.066 53.6692 275.786 53.6692C270.986 53.6692 267.359 52.5759 264.906 50.3892C262.453 48.2026 261.226 44.5492 261.226 39.4292V26.8692H253.786ZM317.506 17.2692V36.1492C317.506 38.5492 317.959 40.3359 318.866 41.5092C319.826 42.6826 321.052 43.2692 322.546 43.2692C323.986 43.2692 325.186 42.6292 326.146 41.3492C327.159 40.0159 327.666 37.9359 327.666 35.1092V17.2692H339.986V52.4692H327.666V47.9092C326.492 49.8292 325.026 51.2692 323.266 52.2292C321.506 53.1892 319.666 53.6692 317.746 53.6692C314.012 53.6692 310.972 52.4692 308.626 50.0692C306.332 47.6159 305.186 44.1492 305.186 39.6692V17.2692H317.506ZM377.232 27.5892H365.552C365.552 26.5226 365.125 25.7492 364.272 25.2692C363.472 24.7359 362.512 24.4692 361.392 24.4692C360.538 24.4692 359.792 24.6559 359.152 25.0292C358.565 25.3492 358.272 25.8559 358.272 26.5492C358.272 27.2426 358.512 27.8026 358.992 28.2292C359.525 28.6559 360.672 29.0559 362.432 29.4292L370.272 31.0292C373.365 31.6692 375.525 32.8426 376.752 34.5492C378.032 36.2559 378.672 38.4159 378.672 41.0292C378.672 44.6559 377.125 47.6692 374.032 50.0692C370.938 52.4692 367.045 53.6692 362.352 53.6692C357.285 53.6692 353.232 52.4959 350.192 50.1492C347.205 47.7492 345.605 44.7092 345.392 41.0292H357.472C357.525 42.4159 358.032 43.4826 358.992 44.2292C359.952 44.9226 361.178 45.2692 362.672 45.2692C363.845 45.2692 364.805 45.0292 365.552 44.5492C366.298 44.0159 366.672 43.2692 366.672 42.3092C366.672 41.7759 366.458 41.2692 366.032 40.7892C365.605 40.3092 364.858 39.9626 363.792 39.7492L356.992 38.3092C353.152 37.4559 350.405 36.1226 348.752 34.3092C347.098 32.4426 346.272 30.1492 346.272 27.4292C346.272 24.0159 347.632 21.2692 350.352 19.1892C353.125 17.1092 356.912 16.0692 361.712 16.0692C366.032 16.0692 369.605 17.0292 372.432 18.9492C375.258 20.8159 376.858 23.6959 377.232 27.5892ZM398.128 34.8692C398.128 31.8826 398.528 29.2159 399.328 26.8692C400.181 24.5226 401.275 22.5492 402.608 20.9492C403.995 19.3492 405.621 18.1492 407.488 17.3492C409.355 16.4959 411.301 16.0692 413.328 16.0692C415.675 16.0692 417.861 16.5492 419.888 17.5092C421.915 18.4692 423.568 19.9359 424.848 21.9092V17.2692H437.168V52.4692H424.848V47.8292C423.568 49.8026 421.915 51.2692 419.888 52.2292C417.861 53.1892 415.675 53.6692 413.328 53.6692C411.301 53.6692 409.355 53.2692 407.488 52.4692C405.621 51.6159 403.995 50.3892 402.608 48.7892C401.275 47.1892 400.181 45.2159 399.328 42.8692C398.528 40.5226 398.128 37.8559 398.128 34.8692ZM417.728 26.0692C415.435 26.0692 413.648 26.9226 412.368 28.6292C411.088 30.2826 410.448 32.3626 410.448 34.8692C410.448 37.3759 411.088 39.4826 412.368 41.1892C413.648 42.8426 415.435 43.6692 417.728 43.6692C419.861 43.6692 421.595 42.8959 422.928 41.3492C424.315 39.8026 425.008 37.6426 425.008 34.8692C425.008 32.0959 424.341 29.9359 423.008 28.3892C421.675 26.8426 419.915 26.0692 417.728 26.0692ZM440.739 26.8692V17.2692H448.179V3.66924H460.499V17.2692H470.659V26.8692H460.499V38.5492C460.499 40.2559 460.899 41.4026 461.699 41.9892C462.499 42.5759 463.673 42.8692 465.219 42.8692C466.126 42.8692 467.059 42.7892 468.019 42.6292C468.979 42.4692 469.859 42.3359 470.659 42.2292V52.8692C469.486 53.1359 468.179 53.3226 466.739 53.4292C465.353 53.5892 464.019 53.6692 462.739 53.6692C457.939 53.6692 454.313 52.5759 451.859 50.3892C449.406 48.2026 448.179 44.5492 448.179 39.4292V26.8692H440.739Z" fill="white"/>
<path d="M91.404 165.749C91.3531 161.932 90.6373 158.152 89.2887 154.58C88.1193 151.567 86.3331 148.831 84.0444 146.546C81.7556 144.261 79.0146 142.478 75.9964 141.31C72.4643 139.986 68.7328 139.271 64.9607 139.193C60.1042 138.976 58.5645 138.916 46.2364 138.916C33.9084 138.916 32.3282 138.916 27.507 139.193C23.7367 139.271 20.007 139.987 16.4764 141.31C13.4578 142.477 10.7163 144.26 8.42748 146.545C6.13862 148.83 4.35274 151.567 3.1841 154.58C1.85553 158.104 1.14014 161.828 1.06884 165.592C0.851761 170.446 0.786133 171.983 0.786133 184.291C0.786133 196.598 0.786133 198.171 1.06884 202.989C1.14457 206.759 1.85638 210.478 3.1841 214.011C4.3547 217.024 6.14191 219.76 8.43153 222.044C10.7212 224.328 13.4629 226.11 16.4814 227.276C20.0023 228.653 23.7328 229.42 27.5121 229.544C32.3737 229.761 33.9134 229.827 46.2415 229.827C58.5695 229.827 60.1497 229.827 64.9708 229.544C68.7427 229.47 72.4745 228.756 76.0065 227.433C79.0239 226.264 81.7642 224.48 84.0528 222.195C86.3414 219.911 88.128 217.175 89.2988 214.163C90.6266 210.635 91.3384 206.915 91.4141 203.14C91.6312 198.292 91.6968 196.755 91.6968 184.442C91.6867 172.134 91.6867 170.572 91.404 165.749ZM46.2061 207.565C33.3127 207.565 22.8676 197.138 22.8676 184.266C22.8676 171.393 33.3127 160.966 46.2061 160.966C52.3959 160.966 58.3321 163.421 62.709 167.79C67.0858 172.16 69.5446 178.086 69.5446 184.266C69.5446 190.445 67.0858 196.371 62.709 200.741C58.3321 205.11 52.3959 207.565 46.2061 207.565ZM70.4736 165.537C69.7587 165.538 69.0507 165.398 68.3901 165.125C67.7296 164.852 67.1294 164.452 66.6239 163.947C66.1184 163.443 65.7176 162.843 65.4443 162.184C65.1711 161.524 65.0308 160.818 65.0314 160.104C65.0314 159.391 65.1721 158.685 65.4455 158.026C65.7189 157.367 66.1195 156.768 66.6246 156.264C67.1298 155.76 67.7294 155.36 68.3894 155.087C69.0493 154.814 69.7567 154.673 70.471 154.673C71.1854 154.673 71.8927 154.814 72.5527 155.087C73.2126 155.36 73.8123 155.76 74.3174 156.264C74.8225 156.768 75.2232 157.367 75.4966 158.026C75.7699 158.685 75.9106 159.391 75.9106 160.104C75.9106 163.108 73.4773 165.537 70.4736 165.537Z" fill="white"/>
<path d="M46.2061 199.4C54.5789 199.4 61.3663 192.624 61.3663 184.266C61.3663 175.907 54.5789 169.131 46.2061 169.131C37.8334 169.131 31.0459 175.907 31.0459 184.266C31.0459 192.624 37.8334 199.4 46.2061 199.4Z" fill="white"/>
<path d="M91.6968 309.96L91.2763 345.567C91.2763 349.119 89.7866 352.525 87.135 355.036C84.4834 357.547 80.8871 358.958 77.1372 358.958H14.9252C11.1753 358.958 7.57897 357.547 4.92737 355.036C2.27578 352.525 0.786133 349.119 0.786133 345.567L1.20666 309.96L45.0152 334.374C45.4504 334.617 45.9465 334.745 46.4517 334.745C46.957 334.745 47.453 334.617 47.8883 334.374L91.6968 309.96ZM77.1372 289.325C80.6162 289.324 83.9734 290.539 86.5663 292.735C89.1592 294.932 90.806 297.957 91.1914 301.232L46.0312 326.391L0.870968 301.232C1.25645 297.957 2.90317 294.932 5.49612 292.735C8.08906 290.539 11.4462 289.324 14.9252 289.325H77.1372Z" fill="white"/>
<path d="M36.8387 462.044C33.8749 462.044 31.5399 464.641 31.5399 467.813C31.5399 470.974 33.9296 473.582 36.8387 473.582C39.7971 473.582 42.132 470.974 42.132 467.813C42.1922 464.636 39.7971 462.044 36.8387 462.044ZM55.8028 462.044C52.839 462.044 50.504 464.641 50.504 467.813C50.504 470.974 52.8937 473.582 55.8028 473.582C58.7611 473.582 61.0961 470.974 61.0961 467.813C61.0906 464.636 58.7611 462.044 55.8028 462.044Z" fill="white"/>
<path d="M81.05 418.456H11.433C10.0312 418.46 8.6439 418.739 7.35022 419.279C6.05655 419.819 4.88185 420.608 3.89321 421.602C2.90456 422.595 2.12132 423.774 1.58822 425.071C1.05511 426.367 0.782573 427.756 0.786168 429.158V499.392C0.786168 505.315 5.56547 510.094 11.433 510.094H70.343L67.5815 500.475L74.2364 506.66L80.5195 512.478L91.6967 522.354V429.158C91.7003 427.756 91.4278 426.367 90.8947 425.071C90.3616 423.774 89.5784 422.595 88.5897 421.602C87.6011 420.608 86.4264 419.819 85.1327 419.279C83.839 418.739 82.4517 418.46 81.05 418.456ZM60.9922 486.301C60.9922 486.301 59.1221 484.07 57.5691 482.085C64.3716 480.16 66.9691 475.906 66.9691 475.906C64.8364 477.306 62.8132 478.301 60.9922 478.979C54.3629 481.754 47.0624 482.511 40.0049 481.156C37.397 480.643 34.8417 479.893 32.3711 478.914C31.0681 478.419 29.8017 477.832 28.5816 477.158C28.423 477.043 28.2699 477 28.1168 476.896C28.0348 476.857 27.9622 476.801 27.9035 476.732C26.9684 476.218 26.4489 475.857 26.4489 475.857C26.4489 475.857 28.9425 480.013 35.5427 481.987C33.9842 483.955 32.0594 486.301 32.0594 486.301C20.5814 485.935 16.2232 478.405 16.2232 478.405C16.2232 461.678 23.7038 448.122 23.7038 448.122C31.1845 442.506 38.2987 442.664 38.2987 442.664L38.8182 443.288C29.4674 445.994 25.1529 450.096 25.1529 450.096C25.1529 450.096 26.3013 449.472 28.2207 448.592C33.7765 446.153 38.1894 445.475 40.0103 445.316C40.322 445.267 40.5845 445.212 40.8962 445.212C49.9036 443.999 59.0628 445.71 67.0238 450.096C67.0238 450.096 62.9171 446.202 54.0857 443.501L54.813 442.67C54.813 442.67 61.9328 442.511 69.4079 448.127C69.4079 448.127 76.8886 461.683 76.8886 478.411C76.8886 478.405 72.4757 485.935 60.9922 486.301Z" fill="white"/>
</svg>
