<svg width="744" height="240" viewBox="0 0 744 240" fill="none" xmlns="http://www.w3.org/2000/svg">
<path d="M62.0001 160H744V240H62.0001V160Z" fill="#EE11C8"/>
<path d="M154.175 184.864H146.347V175H132.049V184.864H125.843V215.048H132.049V225.693H146.347V215.048H154.175V184.864Z" fill="white"/>
<path d="M112.079 185.546H104.251V175.791H89.9528V185.546H83.7468V215.416H89.9528V225.954H104.251V215.416H112.079V185.546Z" fill="white"/>
<path d="M146.314 174H131.602V192.533H146.314V174Z" fill="#2F55A6"/>
<path d="M104.338 174.678H89.6257V193.211H104.338V174.678Z" fill="#2F55A6"/>
<path d="M134.593 0H744V80H134.593V0Z" fill="#F6321A"/>
<path d="M224.463 23.8637H216.634V14H202.336V23.8637H196.13V54.0479H202.336V64.6932H216.634V54.0479H224.463V23.8637Z" fill="white"/>
<path d="M182.366 24.5465H174.538V14.7905H160.24V24.5465H154.034V54.4162H160.24V64.9537H174.538V54.4162H182.366V24.5465Z" fill="white"/>
<path d="M216.66 46.0161H201.948V64.5494H216.66V46.0161Z" fill="#2F55A6"/>
<path d="M174.625 46.678H159.913V65.2113H174.625V46.678Z" fill="#2F55A6"/>
<path d="M0 80H744L744 160H0V80Z" fill="#FFCE00"/>
<path d="M83.8847 104.862H76.0585V95H61.7561V104.862H55.5488V135.038H61.7561V145.695H76.0585V135.038H83.8847V104.862Z" fill="white"/>
<path d="M41.7894 105.546H33.9631V95.7864H19.6666V105.546H13.4593V135.414H19.6666V145.951H33.9631V135.414H41.7894V105.546Z" fill="white"/>
<path d="M41.9312 118.407H28.7952V136.94H41.9312V118.407Z" fill="#2F55A6"/>
<path d="M83.9667 118.407H70.8307V136.94H83.9667V118.407Z" fill="#2F55A6"/>
</svg>
