<svg width="770" height="168" viewBox="0 0 770 168" fill="none" xmlns="http://www.w3.org/2000/svg">
<g filter="url(#filter0_d_422_97)">
<rect x="14.5" y="15.5" width="734" height="136" rx="31.5" stroke="#FF914D" stroke-width="5" shape-rendering="crispEdges"/>
</g>
<g filter="url(#filter1_d_422_97)">
<rect x="19.5" y="20.5" width="724" height="126" rx="26.5" stroke="#FF914D" stroke-width="5" shape-rendering="crispEdges"/>
</g>
<rect x="17" y="18" width="729" height="131" rx="29" stroke="white" stroke-width="5"/>
<path d="M115.011 95.6235C111.302 95.6235 107.939 94.8262 104.923 93.2315C101.942 91.6022 99.5847 89.3662 97.8514 86.5235C96.1527 83.6462 95.3034 80.4048 95.3034 76.7995C95.3034 73.1942 96.1527 69.9702 97.8514 67.1275C99.5847 64.2502 101.942 62.0142 104.923 60.4195C107.939 58.7902 111.319 57.9755 115.063 57.9755C118.218 57.9755 121.061 58.5302 123.591 59.6395C126.157 60.7488 128.306 62.3435 130.039 64.4235L124.631 69.4155C122.17 66.5728 119.119 65.1515 115.479 65.1515C113.226 65.1515 111.215 65.6542 109.447 66.6595C107.679 67.6302 106.293 68.9995 105.287 70.7675C104.317 72.5355 103.831 74.5462 103.831 76.7995C103.831 79.0528 104.317 81.0635 105.287 82.8315C106.293 84.5995 107.679 85.9862 109.447 86.9915C111.215 87.9622 113.226 88.4475 115.479 88.4475C119.119 88.4475 122.17 87.0088 124.631 84.1315L130.039 89.1235C128.306 91.2382 126.157 92.8502 123.591 93.9595C121.026 95.0688 118.166 95.6235 115.011 95.6235ZM135.156 56.4155H143.268V94.9995H135.156V56.4155ZM150.797 67.0235H158.909V94.9995H150.797V67.0235ZM154.853 63.1235C153.362 63.1235 152.149 62.6902 151.213 61.8235C150.277 60.9568 149.809 59.8822 149.809 58.5995C149.809 57.3168 150.277 56.2422 151.213 55.3755C152.149 54.5088 153.362 54.0755 154.853 54.0755C156.343 54.0755 157.557 54.4915 158.493 55.3235C159.429 56.1555 159.897 57.1955 159.897 58.4435C159.897 59.7955 159.429 60.9222 158.493 61.8235C157.557 62.6902 156.343 63.1235 154.853 63.1235ZM179.957 95.4155C176.976 95.4155 174.289 94.8088 171.897 93.5955C169.54 92.3475 167.685 90.6315 166.333 88.4475C165.016 86.2635 164.357 83.7848 164.357 81.0115C164.357 78.2382 165.016 75.7595 166.333 73.5755C167.685 71.3915 169.54 69.6928 171.897 68.4795C174.289 67.2315 176.976 66.6075 179.957 66.6075C182.904 66.6075 185.469 67.2315 187.653 68.4795C189.872 69.6928 191.484 71.4435 192.489 73.7315L186.197 77.1115C184.741 74.5462 182.644 73.2635 179.905 73.2635C177.791 73.2635 176.04 73.9568 174.653 75.3435C173.267 76.7302 172.573 78.6195 172.573 81.0115C172.573 83.4035 173.267 85.2928 174.653 86.6795C176.04 88.0662 177.791 88.7595 179.905 88.7595C182.679 88.7595 184.776 87.4768 186.197 84.9115L192.489 88.3435C191.484 90.5622 189.872 92.2955 187.653 93.5435C185.469 94.7915 182.904 95.4155 179.957 95.4155ZM208.969 84.0275L205.069 87.8755V94.9995H196.957V56.4155H205.069V78.2555L216.925 67.0235H226.597L214.949 78.8795L227.637 94.9995H217.809L208.969 84.0275ZM279.968 58.5995V94.9995H271.544V80.0755H255.008V94.9995H246.584V58.5995H255.008V72.9515H271.544V58.5995H279.968ZM315.412 81.1155C315.412 81.2195 315.36 81.9475 315.256 83.2995H294.092C294.473 85.0328 295.374 86.4022 296.796 87.4075C298.217 88.4128 299.985 88.9155 302.1 88.9155C303.556 88.9155 304.838 88.7075 305.948 88.2915C307.092 87.8408 308.149 87.1475 309.12 86.2115L313.436 90.8915C310.801 93.9075 306.953 95.4155 301.892 95.4155C298.737 95.4155 295.946 94.8088 293.52 93.5955C291.093 92.3475 289.221 90.6315 287.904 88.4475C286.586 86.2635 285.928 83.7848 285.928 81.0115C285.928 78.2728 286.569 75.8115 287.852 73.6275C289.169 71.4088 290.954 69.6928 293.208 68.4795C295.496 67.2315 298.044 66.6075 300.852 66.6075C303.59 66.6075 306.069 67.1968 308.288 68.3755C310.506 69.5542 312.24 71.2528 313.488 73.4715C314.77 75.6555 315.412 78.2035 315.412 81.1155ZM300.904 72.7435C299.066 72.7435 297.524 73.2635 296.276 74.3035C295.028 75.3435 294.265 76.7648 293.988 78.5675H307.768C307.49 76.7995 306.728 75.3955 305.48 74.3555C304.232 73.2808 302.706 72.7435 300.904 72.7435ZM328.56 70.7155C329.531 69.3635 330.831 68.3408 332.46 67.6475C334.124 66.9542 336.031 66.6075 338.18 66.6075V74.0955C337.279 74.0262 336.672 73.9915 336.36 73.9915C334.038 73.9915 332.218 74.6502 330.9 75.9675C329.583 77.2502 328.924 79.1915 328.924 81.7915V94.9995H320.812V67.0235H328.56V70.7155ZM370.154 81.1155C370.154 81.2195 370.102 81.9475 369.998 83.2995H348.834C349.215 85.0328 350.117 86.4022 351.538 87.4075C352.959 88.4128 354.727 88.9155 356.842 88.9155C358.298 88.9155 359.581 88.7075 360.69 88.2915C361.834 87.8408 362.891 87.1475 363.862 86.2115L368.178 90.8915C365.543 93.9075 361.695 95.4155 356.634 95.4155C353.479 95.4155 350.689 94.8088 348.262 93.5955C345.835 92.3475 343.963 90.6315 342.646 88.4475C341.329 86.2635 340.67 83.7848 340.67 81.0115C340.67 78.2728 341.311 75.8115 342.594 73.6275C343.911 71.4088 345.697 69.6928 347.95 68.4795C350.238 67.2315 352.786 66.6075 355.594 66.6075C358.333 66.6075 360.811 67.1968 363.03 68.3755C365.249 69.5542 366.982 71.2528 368.23 73.4715C369.513 75.6555 370.154 78.2035 370.154 81.1155ZM355.646 72.7435C353.809 72.7435 352.266 73.2635 351.018 74.3035C349.77 75.3435 349.007 76.7648 348.73 78.5675H362.51C362.233 76.7995 361.47 75.3955 360.222 74.3555C358.974 73.2808 357.449 72.7435 355.646 72.7435ZM408.325 93.6475C407.528 94.2368 406.54 94.6875 405.361 94.9995C404.217 95.2768 403.004 95.4155 401.721 95.4155C398.393 95.4155 395.81 94.5662 393.973 92.8675C392.17 91.1688 391.269 88.6728 391.269 85.3795V73.8875H386.953V67.6475H391.269V60.8355H399.381V67.6475H406.349V73.8875H399.381V85.2755C399.381 86.4542 399.676 87.3728 400.265 88.0315C400.889 88.6555 401.756 88.9675 402.865 88.9675C404.148 88.9675 405.24 88.6208 406.141 87.9275L408.325 93.6475ZM425.327 95.4155C422.381 95.4155 419.729 94.8088 417.371 93.5955C415.049 92.3475 413.229 90.6315 411.911 88.4475C410.594 86.2635 409.935 83.7848 409.935 81.0115C409.935 78.2382 410.594 75.7595 411.911 73.5755C413.229 71.3915 415.049 69.6928 417.371 68.4795C419.729 67.2315 422.381 66.6075 425.327 66.6075C428.274 66.6075 430.909 67.2315 433.231 68.4795C435.554 69.6928 437.374 71.3915 438.691 73.5755C440.009 75.7595 440.667 78.2382 440.667 81.0115C440.667 83.7848 440.009 86.2635 438.691 88.4475C437.374 90.6315 435.554 92.3475 433.231 93.5955C430.909 94.8088 428.274 95.4155 425.327 95.4155ZM425.327 88.7595C427.407 88.7595 429.106 88.0662 430.423 86.6795C431.775 85.2582 432.451 83.3688 432.451 81.0115C432.451 78.6542 431.775 76.7822 430.423 75.3955C429.106 73.9742 427.407 73.2635 425.327 73.2635C423.247 73.2635 421.531 73.9742 420.179 75.3955C418.827 76.7822 418.151 78.6542 418.151 81.0115C418.151 83.3688 418.827 85.2582 420.179 86.6795C421.531 88.0662 423.247 88.7595 425.327 88.7595ZM484.58 94.9995L477.56 84.8595H477.144H469.812V94.9995H461.388V58.5995H477.144C480.368 58.5995 483.159 59.1368 485.516 60.2115C487.908 61.2862 489.746 62.8115 491.028 64.7875C492.311 66.7635 492.952 69.1035 492.952 71.8075C492.952 74.5115 492.294 76.8515 490.976 78.8275C489.694 80.7688 487.856 82.2595 485.464 83.2995L493.628 94.9995H484.58ZM484.424 71.8075C484.424 69.7622 483.766 68.2022 482.448 67.1275C481.131 66.0182 479.207 65.4635 476.676 65.4635H469.812V78.1515H476.676C479.207 78.1515 481.131 77.5968 482.448 76.4875C483.766 75.3782 484.424 73.8182 484.424 71.8075ZM526.459 81.1155C526.459 81.2195 526.407 81.9475 526.303 83.2995H505.139C505.52 85.0328 506.421 86.4022 507.843 87.4075C509.264 88.4128 511.032 88.9155 513.147 88.9155C514.603 88.9155 515.885 88.7075 516.995 88.2915C518.139 87.8408 519.196 87.1475 520.167 86.2115L524.483 90.8915C521.848 93.9075 518 95.4155 512.939 95.4155C509.784 95.4155 506.993 94.8088 504.567 93.5955C502.14 92.3475 500.268 90.6315 498.951 88.4475C497.633 86.2635 496.975 83.7848 496.975 81.0115C496.975 78.2728 497.616 75.8115 498.899 73.6275C500.216 71.4088 502.001 69.6928 504.255 68.4795C506.543 67.2315 509.091 66.6075 511.899 66.6075C514.637 66.6075 517.116 67.1968 519.335 68.3755C521.553 69.5542 523.287 71.2528 524.535 73.4715C525.817 75.6555 526.459 78.2035 526.459 81.1155ZM511.951 72.7435C510.113 72.7435 508.571 73.2635 507.323 74.3035C506.075 75.3435 505.312 76.7648 505.035 78.5675H518.815C518.537 76.7995 517.775 75.3955 516.527 74.3555C515.279 73.2808 513.753 72.7435 511.951 72.7435ZM560.719 67.0235V90.3195C560.719 95.4502 559.385 99.2635 556.715 101.76C554.046 104.256 550.146 105.504 545.015 105.504C542.311 105.504 539.746 105.174 537.319 104.516C534.893 103.857 532.882 102.904 531.287 101.656L534.511 95.8315C535.69 96.8022 537.181 97.5648 538.983 98.1195C540.786 98.7088 542.589 99.0035 544.391 99.0035C547.199 99.0035 549.262 98.3622 550.579 97.0795C551.931 95.8315 552.607 93.9248 552.607 91.3595V90.1635C550.493 92.4862 547.546 93.6475 543.767 93.6475C541.202 93.6475 538.845 93.0928 536.695 91.9835C534.581 90.8395 532.899 89.2448 531.651 87.1995C530.403 85.1542 529.779 82.7968 529.779 80.1275C529.779 77.4582 530.403 75.1008 531.651 73.0555C532.899 71.0102 534.581 69.4328 536.695 68.3235C538.845 67.1795 541.202 66.6075 543.767 66.6075C547.823 66.6075 550.909 67.9422 553.023 70.6115V67.0235H560.719ZM545.379 86.9915C547.529 86.9915 549.279 86.3675 550.631 85.1195C552.018 83.8368 552.711 82.1728 552.711 80.1275C552.711 78.0822 552.018 76.4355 550.631 75.1875C549.279 73.9048 547.529 73.2635 545.379 73.2635C543.23 73.2635 541.462 73.9048 540.075 75.1875C538.689 76.4355 537.995 78.0822 537.995 80.1275C537.995 82.1728 538.689 83.8368 540.075 85.1195C541.462 86.3675 543.23 86.9915 545.379 86.9915ZM568.269 67.0235H576.381V94.9995H568.269V67.0235ZM572.325 63.1235C570.835 63.1235 569.621 62.6902 568.685 61.8235C567.749 60.9568 567.281 59.8822 567.281 58.5995C567.281 57.3168 567.749 56.2422 568.685 55.3755C569.621 54.5088 570.835 54.0755 572.325 54.0755C573.816 54.0755 575.029 54.4915 575.965 55.3235C576.901 56.1555 577.369 57.1955 577.369 58.4435C577.369 59.7955 576.901 60.9222 575.965 61.8235C575.029 62.6902 573.816 63.1235 572.325 63.1235ZM593.322 95.4155C590.999 95.4155 588.729 95.1382 586.51 94.5835C584.291 93.9942 582.523 93.2662 581.206 92.3995L583.91 86.5755C585.158 87.3728 586.666 88.0315 588.434 88.5515C590.202 89.0368 591.935 89.2795 593.634 89.2795C597.066 89.2795 598.782 88.4302 598.782 86.7315C598.782 85.9342 598.314 85.3622 597.378 85.0155C596.442 84.6688 595.003 84.3742 593.062 84.1315C590.774 83.7848 588.885 83.3862 587.394 82.9355C585.903 82.4848 584.603 81.6875 583.494 80.5435C582.419 79.3995 581.882 77.7702 581.882 75.6555C581.882 73.8875 582.385 72.3275 583.39 70.9755C584.43 69.5888 585.921 68.5142 587.862 67.7515C589.838 66.9888 592.161 66.6075 594.83 66.6075C596.806 66.6075 598.765 66.8328 600.706 67.2835C602.682 67.6995 604.311 68.2888 605.594 69.0515L602.89 74.8235C600.429 73.4368 597.742 72.7435 594.83 72.7435C593.097 72.7435 591.797 72.9862 590.93 73.4715C590.063 73.9568 589.63 74.5808 589.63 75.3435C589.63 76.2102 590.098 76.8168 591.034 77.1635C591.97 77.5102 593.461 77.8395 595.506 78.1515C597.794 78.5328 599.666 78.9488 601.122 79.3995C602.578 79.8155 603.843 80.5955 604.918 81.7395C605.993 82.8835 606.53 84.4782 606.53 86.5235C606.53 88.2568 606.01 89.7995 604.97 91.1515C603.93 92.5035 602.405 93.5608 600.394 94.3235C598.418 95.0515 596.061 95.4155 593.322 95.4155ZM629.579 93.6475C628.782 94.2368 627.794 94.6875 626.615 94.9995C625.471 95.2768 624.258 95.4155 622.975 95.4155C619.647 95.4155 617.064 94.5662 615.227 92.8675C613.424 91.1688 612.523 88.6728 612.523 85.3795V73.8875H608.207V67.6475H612.523V60.8355H620.635V67.6475H627.603V73.8875H620.635V85.2755C620.635 86.4542 620.93 87.3728 621.519 88.0315C622.143 88.6555 623.01 88.9675 624.119 88.9675C625.402 88.9675 626.494 88.6208 627.395 87.9275L629.579 93.6475ZM660.673 81.1155C660.673 81.2195 660.621 81.9475 660.517 83.2995H639.353C639.735 85.0328 640.636 86.4022 642.057 87.4075C643.479 88.4128 645.247 88.9155 647.361 88.9155C648.817 88.9155 650.1 88.7075 651.209 88.2915C652.353 87.8408 653.411 87.1475 654.381 86.2115L658.697 90.8915C656.063 93.9075 652.215 95.4155 647.153 95.4155C643.999 95.4155 641.208 94.8088 638.781 93.5955C636.355 92.3475 634.483 90.6315 633.165 88.4475C631.848 86.2635 631.189 83.7848 631.189 81.0115C631.189 78.2728 631.831 75.8115 633.113 73.6275C634.431 71.4088 636.216 69.6928 638.469 68.4795C640.757 67.2315 643.305 66.6075 646.113 66.6075C648.852 66.6075 651.331 67.1968 653.549 68.3755C655.768 69.5542 657.501 71.2528 658.749 73.4715C660.032 75.6555 660.673 78.2035 660.673 81.1155ZM646.165 72.7435C644.328 72.7435 642.785 73.2635 641.537 74.3035C640.289 75.3435 639.527 76.7648 639.249 78.5675H653.029C652.752 76.7995 651.989 75.3955 650.741 74.3555C649.493 73.2808 647.968 72.7435 646.165 72.7435ZM673.822 70.7155C674.793 69.3635 676.093 68.3408 677.722 67.6475C679.386 66.9542 681.293 66.6075 683.442 66.6075V74.0955C682.541 74.0262 681.934 73.9915 681.622 73.9915C679.299 73.9915 677.479 74.6502 676.162 75.9675C674.845 77.2502 674.186 79.1915 674.186 81.7915V94.9995H666.074V67.0235H673.822V70.7155Z" fill="white"/>
<path d="M104.923 93.2315L104.444 94.1091L104.456 94.1155L104.923 93.2315ZM97.8514 86.5235L96.9903 87.0319L96.9939 87.038L96.9976 87.0441L97.8514 86.5235ZM97.8514 67.1275L96.9948 66.6115L96.993 66.6146L97.8514 67.1275ZM104.923 60.4195L105.395 61.3013L105.399 61.2993L104.923 60.4195ZM123.591 59.6395L123.19 60.5554L123.194 60.5574L123.591 59.6395ZM130.039 64.4235L130.718 65.1583L131.416 64.5136L130.808 63.7833L130.039 64.4235ZM124.631 69.4155L123.875 70.0701L124.551 70.8505L125.31 70.1503L124.631 69.4155ZM109.447 66.6595L109.929 67.5361L109.935 67.5325L109.942 67.5288L109.447 66.6595ZM105.287 70.7675L104.418 70.2732L104.414 70.2797L104.411 70.2863L105.287 70.7675ZM105.287 82.8315L104.411 83.3128L104.414 83.3193L104.418 83.3258L105.287 82.8315ZM109.447 86.9915L108.953 87.8608L108.96 87.8645L108.966 87.8681L109.447 86.9915ZM124.631 84.1315L125.31 83.3967L124.547 82.6923L123.871 83.4815L124.631 84.1315ZM130.039 89.1235L130.813 89.7574L131.41 89.0282L130.718 88.3887L130.039 89.1235ZM123.591 93.9595L123.194 93.0417L123.591 93.9595ZM115.011 94.6235C111.45 94.6235 108.25 93.8595 105.391 92.3475L104.456 94.1155C107.628 95.7929 111.154 96.6235 115.011 96.6235V94.6235ZM105.403 92.354C102.572 90.807 100.345 88.6927 98.7052 86.0029L96.9976 87.0441C98.8242 90.0397 101.312 92.3974 104.444 94.109L105.403 92.354ZM98.7125 86.0151C97.1119 83.3039 96.3034 80.2406 96.3034 76.7995H94.3034C94.3034 80.5691 95.1935 83.9884 96.9903 87.0319L98.7125 86.0151ZM96.3034 76.7995C96.3034 73.3583 97.1119 70.3144 98.7098 67.6405L96.993 66.6146C95.1935 69.6259 94.3034 73.0301 94.3034 76.7995H96.3034ZM98.708 67.6435C100.348 64.9216 102.572 62.8115 105.395 61.3013L104.452 59.5377C101.313 61.2168 98.8218 63.5787 96.9948 66.6115L98.708 67.6435ZM105.399 61.2993C108.256 59.756 111.47 58.9755 115.063 58.9755V56.9755C111.169 56.9755 107.623 57.8244 104.448 59.5397L105.399 61.2993ZM115.063 58.9755C118.099 58.9755 120.803 59.5089 123.19 60.5554L123.993 58.7236C121.319 57.5515 118.337 56.9755 115.063 56.9755V58.9755ZM123.194 60.5574C125.621 61.6066 127.641 63.108 129.271 65.0637L130.808 63.7833C128.971 61.579 126.693 59.8911 123.988 58.7217L123.194 60.5574ZM129.361 63.6887L123.953 68.6807L125.31 70.1503L130.718 65.1583L129.361 63.6887ZM125.387 68.7609C122.743 65.7072 119.42 64.1515 115.479 64.1515V66.1515C118.818 66.1515 121.597 67.4385 123.875 70.0701L125.387 68.7609ZM115.479 64.1515C113.072 64.1515 110.888 64.6902 108.953 65.7902L109.942 67.5288C111.543 66.6181 113.38 66.1515 115.479 66.1515V64.1515ZM108.966 65.7829C107.034 66.8435 105.514 68.3458 104.418 70.2732L106.157 71.2618C107.071 69.6533 108.324 68.4169 109.929 67.5361L108.966 65.7829ZM104.411 70.2863C103.35 72.2184 102.831 74.398 102.831 76.7995H104.831C104.831 74.6943 105.283 72.8526 106.164 71.2488L104.411 70.2863ZM102.831 76.7995C102.831 79.201 103.35 81.3806 104.411 83.3128L106.164 82.3503C105.283 80.7464 104.831 78.9047 104.831 76.7995H102.831ZM104.418 83.3258C105.512 85.2503 107.029 86.7665 108.953 87.8608L109.942 86.1222C108.33 85.2059 107.073 83.9487 106.157 82.3372L104.418 83.3258ZM108.966 87.8681C110.898 88.9289 113.078 89.4475 115.479 89.4475V87.4475C113.374 87.4475 111.533 86.9955 109.929 86.1149L108.966 87.8681ZM115.479 89.4475C119.425 89.4475 122.749 87.8708 125.391 84.7815L123.871 83.4815C121.591 86.1469 118.814 87.4475 115.479 87.4475V89.4475ZM123.953 84.8663L129.361 89.8583L130.718 88.3887L125.31 83.3967L123.953 84.8663ZM129.266 88.4896C127.636 90.4781 125.617 91.9941 123.194 93.0417L123.988 94.8774C126.697 93.7062 128.976 91.9982 130.813 89.7574L129.266 88.4896ZM123.194 93.0417C120.77 94.0902 118.047 94.6235 115.011 94.6235V96.6235C118.285 96.6235 121.282 96.0474 123.988 94.8774L123.194 93.0417ZM135.156 56.4155V55.4155H134.156V56.4155H135.156ZM143.268 56.4155H144.268V55.4155H143.268V56.4155ZM143.268 94.9995V95.9995H144.268V94.9995H143.268ZM135.156 94.9995H134.156V95.9995H135.156V94.9995ZM135.156 57.4155H143.268V55.4155H135.156V57.4155ZM142.268 56.4155V94.9995H144.268V56.4155H142.268ZM143.268 93.9995H135.156V95.9995H143.268V93.9995ZM136.156 94.9995V56.4155H134.156V94.9995H136.156ZM150.797 67.0235V66.0235H149.797V67.0235H150.797ZM158.909 67.0235H159.909V66.0235H158.909V67.0235ZM158.909 94.9995V95.9995H159.909V94.9995H158.909ZM150.797 94.9995H149.797V95.9995H150.797V94.9995ZM151.213 61.8235L150.533 62.5573L151.213 61.8235ZM151.213 55.3755L151.892 56.1093L151.213 55.3755ZM158.493 55.3235L157.828 56.0709V56.0709L158.493 55.3235ZM158.493 61.8235L159.172 62.5573L159.179 62.5506L159.186 62.5438L158.493 61.8235ZM150.797 68.0235H158.909V66.0235H150.797V68.0235ZM157.909 67.0235V94.9995H159.909V67.0235H157.909ZM158.909 93.9995H150.797V95.9995H158.909V93.9995ZM151.797 94.9995V67.0235H149.797V94.9995H151.797ZM154.853 62.1235C153.569 62.1235 152.613 61.7568 151.892 61.0898L150.533 62.5573C151.685 63.6236 153.155 64.1235 154.853 64.1235V62.1235ZM151.892 61.0898C151.162 60.4135 150.809 59.6054 150.809 58.5995H148.809C148.809 60.159 149.392 61.5002 150.533 62.5573L151.892 61.0898ZM150.809 58.5995C150.809 57.5937 151.162 56.7855 151.892 56.1093L150.533 54.6417C149.392 55.6989 148.809 57.04 148.809 58.5995H150.809ZM151.892 56.1093C152.613 55.4422 153.569 55.0755 154.853 55.0755V53.0755C153.155 53.0755 151.685 53.5755 150.533 54.6418L151.892 56.1093ZM154.853 55.0755C156.148 55.0755 157.109 55.4316 157.828 56.0709L159.157 54.5761C158.004 53.5515 156.539 53.0755 154.853 53.0755V55.0755ZM157.828 56.0709C158.552 56.7139 158.897 57.4823 158.897 58.4435H160.897C160.897 56.9087 160.306 55.5971 159.157 54.5761L157.828 56.0709ZM158.897 58.4435C158.897 59.5361 158.531 60.3988 157.799 61.1032L159.186 62.5438C160.327 61.4456 160.897 60.0549 160.897 58.4435H158.897ZM157.813 61.0898C157.093 61.7568 156.137 62.1235 154.853 62.1235V64.1235C156.55 64.1235 158.021 63.6236 159.172 62.5573L157.813 61.0898ZM171.897 93.5955L171.429 94.4793L171.437 94.4834L171.445 94.4873L171.897 93.5955ZM166.333 88.4475L165.477 88.964L165.483 88.9739L166.333 88.4475ZM166.333 73.5755L165.483 73.0491L165.477 73.059L166.333 73.5755ZM171.897 68.4795L172.355 69.3687L172.36 69.3661L171.897 68.4795ZM187.653 68.4795L187.157 69.3478L187.165 69.3524L187.174 69.3569L187.653 68.4795ZM192.489 73.7315L192.963 74.6124L193.777 74.1752L193.405 73.3292L192.489 73.7315ZM186.197 77.1115L185.328 77.6051L185.81 78.4548L186.671 77.9925L186.197 77.1115ZM174.653 75.3435L173.946 74.6364L174.653 75.3435ZM186.197 84.9115L186.676 84.0336L185.804 83.5579L185.323 84.4269L186.197 84.9115ZM192.489 88.3435L193.4 88.7562L193.784 87.9103L192.968 87.4656L192.489 88.3435ZM187.653 93.5435L187.163 92.6719L187.157 92.6753L187.653 93.5435ZM179.957 94.4155C177.115 94.4155 174.587 93.8383 172.35 92.7037L171.445 94.4873C173.992 95.7794 176.837 96.4155 179.957 96.4155V94.4155ZM172.365 92.7117C170.159 91.5435 168.438 89.9482 167.184 87.9212L165.483 88.9739C166.932 91.3148 168.922 93.1516 171.429 94.4793L172.365 92.7117ZM167.19 87.931C165.974 85.9164 165.357 83.6193 165.357 81.0115H163.357C163.357 83.9504 164.058 86.6106 165.477 88.964L167.19 87.931ZM165.357 81.0115C165.357 78.4038 165.974 76.1066 167.19 74.092L165.477 73.059C164.058 75.4124 163.357 78.0726 163.357 81.0115H165.357ZM167.184 74.1019C168.437 72.0773 170.154 70.5017 172.355 69.3686L171.44 67.5904C168.926 68.884 166.934 70.7057 165.483 73.0492L167.184 74.1019ZM172.36 69.3661C174.595 68.2002 177.12 67.6075 179.957 67.6075V65.6075C176.832 65.6075 173.984 66.2628 171.435 67.5929L172.36 69.3661ZM179.957 67.6075C182.76 67.6075 185.148 68.1999 187.157 69.3478L188.149 67.6113C185.79 66.2631 183.048 65.6075 179.957 65.6075V67.6075ZM187.174 69.3569C189.201 70.4656 190.658 72.0505 191.574 74.1338L193.405 73.3292C192.31 70.8365 190.543 68.92 188.133 67.6021L187.174 69.3569ZM192.016 72.8506L185.724 76.2306L186.671 77.9925L192.963 74.6124L192.016 72.8506ZM187.067 76.6179C185.45 73.7691 183.037 72.2635 179.905 72.2635V74.2635C182.251 74.2635 184.033 75.3233 185.328 77.6051L187.067 76.6179ZM179.905 72.2635C177.548 72.2635 175.536 73.0466 173.946 74.6364L175.36 76.0506C176.544 74.8671 178.033 74.2635 179.905 74.2635V72.2635ZM173.946 74.6364C172.332 76.2504 171.573 78.4164 171.573 81.0115H173.573C173.573 78.8227 174.201 77.21 175.36 76.0506L173.946 74.6364ZM171.573 81.0115C171.573 83.6067 172.332 85.7727 173.946 87.3866L175.36 85.9724C174.201 84.813 173.573 83.2004 173.573 81.0115H171.573ZM173.946 87.3866C175.536 88.9765 177.548 89.7595 179.905 89.7595V87.7595C178.033 87.7595 176.544 87.1559 175.36 85.9724L173.946 87.3866ZM179.905 89.7595C181.452 89.7595 182.855 89.3999 184.08 88.6506C185.302 87.9031 186.294 86.8009 187.072 85.3961L185.323 84.4269C184.68 85.5875 183.912 86.4093 183.037 86.9444C182.164 87.4778 181.132 87.7595 179.905 87.7595V89.7595ZM185.719 85.7894L192.011 89.2214L192.968 87.4656L186.676 84.0336L185.719 85.7894ZM191.579 87.9308C190.665 89.9465 189.205 91.5232 187.163 92.6719L188.144 94.4151C190.539 93.0678 192.303 91.1778 193.4 88.7562L191.579 87.9308ZM187.157 92.6753C185.148 93.8231 182.76 94.4155 179.957 94.4155V96.4155C183.048 96.4155 185.79 95.7599 188.149 94.4118L187.157 92.6753ZM208.969 84.0275L209.748 83.4001L209.054 82.539L208.267 83.3157L208.969 84.0275ZM205.069 87.8755L204.367 87.1637L204.069 87.4574V87.8755H205.069ZM205.069 94.9995V95.9995H206.069V94.9995H205.069ZM196.957 94.9995H195.957V95.9995H196.957V94.9995ZM196.957 56.4155V55.4155H195.957V56.4155H196.957ZM205.069 56.4155H206.069V55.4155H205.069V56.4155ZM205.069 78.2555H204.069V80.5804L205.757 78.9815L205.069 78.2555ZM216.925 67.0235V66.0235H216.526L216.237 66.2976L216.925 67.0235ZM226.597 67.0235L227.31 67.7243L228.981 66.0235H226.597V67.0235ZM214.949 78.8795L214.236 78.1787L213.619 78.8065L214.163 79.498L214.949 78.8795ZM227.637 94.9995V95.9995H229.697L228.423 94.381L227.637 94.9995ZM217.809 94.9995L217.03 95.6269L217.33 95.9995H217.809V94.9995ZM208.267 83.3157L204.367 87.1637L205.771 88.5873L209.671 84.7393L208.267 83.3157ZM204.069 87.8755V94.9995H206.069V87.8755H204.069ZM205.069 93.9995H196.957V95.9995H205.069V93.9995ZM197.957 94.9995V56.4155H195.957V94.9995H197.957ZM196.957 57.4155H205.069V55.4155H196.957V57.4155ZM204.069 56.4155V78.2555H206.069V56.4155H204.069ZM205.757 78.9815L217.613 67.7495L216.237 66.2976L204.381 77.5296L205.757 78.9815ZM216.925 68.0235H226.597V66.0235H216.925V68.0235ZM225.884 66.3227L214.236 78.1787L215.662 79.5803L227.31 67.7243L225.884 66.3227ZM214.163 79.498L226.851 95.618L228.423 94.381L215.735 78.261L214.163 79.498ZM227.637 93.9995H217.809V95.9995H227.637V93.9995ZM218.588 94.3721L209.748 83.4001L208.19 84.6549L217.03 95.6269L218.588 94.3721ZM279.968 58.5995H280.968V57.5995H279.968V58.5995ZM279.968 94.9995V95.9995H280.968V94.9995H279.968ZM271.544 94.9995H270.544V95.9995H271.544V94.9995ZM271.544 80.0755H272.544V79.0755H271.544V80.0755ZM255.008 80.0755V79.0755H254.008V80.0755H255.008ZM255.008 94.9995V95.9995H256.008V94.9995H255.008ZM246.584 94.9995H245.584V95.9995H246.584V94.9995ZM246.584 58.5995V57.5995H245.584V58.5995H246.584ZM255.008 58.5995H256.008V57.5995H255.008V58.5995ZM255.008 72.9515H254.008V73.9515H255.008V72.9515ZM271.544 72.9515V73.9515H272.544V72.9515H271.544ZM271.544 58.5995V57.5995H270.544V58.5995H271.544ZM278.968 58.5995V94.9995H280.968V58.5995H278.968ZM279.968 93.9995H271.544V95.9995H279.968V93.9995ZM272.544 94.9995V80.0755H270.544V94.9995H272.544ZM271.544 79.0755H255.008V81.0755H271.544V79.0755ZM254.008 80.0755V94.9995H256.008V80.0755H254.008ZM255.008 93.9995H246.584V95.9995H255.008V93.9995ZM247.584 94.9995V58.5995H245.584V94.9995H247.584ZM246.584 59.5995H255.008V57.5995H246.584V59.5995ZM254.008 58.5995V72.9515H256.008V58.5995H254.008ZM255.008 73.9515H271.544V71.9515H255.008V73.9515ZM272.544 72.9515V58.5995H270.544V72.9515H272.544ZM271.544 59.5995H279.968V57.5995H271.544V59.5995ZM315.256 83.2995V84.2995H316.182L316.253 83.3762L315.256 83.2995ZM294.092 83.2995V82.2995H292.848L293.115 83.5144L294.092 83.2995ZM296.796 87.4075L297.373 86.5911L296.796 87.4075ZM305.948 88.2915L306.299 89.2278L306.307 89.2249L306.314 89.2219L305.948 88.2915ZM309.12 86.2115L309.855 85.5336L309.162 84.7819L308.426 85.4917L309.12 86.2115ZM313.436 90.8915L314.189 91.5494L314.779 90.8734L314.171 90.2136L313.436 90.8915ZM293.52 93.5955L293.062 94.4849L293.072 94.4899L293.52 93.5955ZM287.904 88.4475L287.047 88.964L287.904 88.4475ZM287.852 73.6275L286.992 73.117L286.989 73.1211L287.852 73.6275ZM293.208 68.4795L293.682 69.36L293.687 69.3574L293.208 68.4795ZM308.288 68.3755L308.757 67.4924L308.288 68.3755ZM313.488 73.4715L312.616 73.9618L312.621 73.9699L312.625 73.9779L313.488 73.4715ZM296.276 74.3035L295.635 73.5353V73.5353L296.276 74.3035ZM293.988 78.5675L292.999 78.4155L292.822 79.5675H293.988V78.5675ZM307.768 78.5675V79.5675H308.937L308.756 78.4125L307.768 78.5675ZM305.48 74.3555L304.827 75.1133L304.833 75.1186L304.839 75.1237L305.48 74.3555ZM314.412 81.1155C314.412 81.1032 314.411 81.1324 314.404 81.2481C314.398 81.3478 314.388 81.4874 314.375 81.6683C314.349 82.0295 314.311 82.5474 314.259 83.2228L316.253 83.3762C316.354 82.0613 316.412 81.2702 316.412 81.1155H314.412ZM315.256 82.2995H294.092V84.2995H315.256V82.2995ZM293.115 83.5144C293.549 85.4857 294.589 87.0717 296.218 88.2239L297.373 86.5911C296.159 85.7326 295.397 84.58 295.068 83.0846L293.115 83.5144ZM296.218 88.2239C297.842 89.3724 299.823 89.9155 302.1 89.9155V87.9155C300.147 87.9155 298.592 87.4533 297.373 86.5911L296.218 88.2239ZM302.1 89.9155C303.649 89.9155 305.055 89.6944 306.299 89.2278L305.597 87.3552C304.622 87.7207 303.462 87.9155 302.1 87.9155V89.9155ZM306.314 89.2219C307.591 88.7188 308.758 87.9495 309.814 86.9314L308.426 85.4917C307.54 86.3455 306.592 86.9629 305.581 87.3611L306.314 89.2219ZM308.385 86.8895L312.701 91.5695L314.171 90.2136L309.855 85.5336L308.385 86.8895ZM312.683 90.2336C310.286 92.9773 306.746 94.4155 301.892 94.4155V96.4155C307.16 96.4155 311.316 94.8377 314.189 91.5494L312.683 90.2336ZM301.892 94.4155C298.867 94.4155 296.234 93.8345 293.967 92.7011L293.072 94.4899C295.659 95.7832 298.607 96.4155 301.892 96.4155V94.4155ZM293.977 92.7062C291.703 91.5369 289.975 89.945 288.76 87.931L287.047 88.964C288.467 91.3181 290.483 93.1581 293.062 94.4848L293.977 92.7062ZM288.76 87.931C287.545 85.9164 286.928 83.6193 286.928 81.0115H284.928C284.928 83.9504 285.628 86.6106 287.047 88.964L288.76 87.931ZM286.928 81.0115C286.928 78.4359 287.529 76.152 288.714 74.1339L286.989 73.1211C285.609 75.471 284.928 78.1097 284.928 81.0115H286.928ZM288.712 74.1381C289.937 72.0741 291.59 70.4865 293.682 69.36L292.734 67.599C290.319 68.8991 288.401 70.7436 286.992 73.117L288.712 74.1381ZM293.687 69.3574C295.816 68.1957 298.198 67.6075 300.852 67.6075V65.6075C297.89 65.6075 295.175 66.2673 292.729 67.6016L293.687 69.3574ZM300.852 67.6075C303.442 67.6075 305.757 68.1635 307.819 69.2586L308.757 67.4924C306.381 66.2302 303.739 65.6075 300.852 65.6075V67.6075ZM307.819 69.2586C309.866 70.3463 311.461 71.9075 312.616 73.9618L314.359 72.9812C313.019 70.5982 311.147 68.7621 308.757 67.4924L307.819 69.2586ZM312.625 73.9779C313.805 75.9866 314.412 78.3545 314.412 81.1155H316.412C316.412 78.0525 315.736 75.3244 314.35 72.9651L312.625 73.9779ZM300.904 71.7435C298.865 71.7435 297.087 72.3259 295.635 73.5353L296.916 75.0717C297.961 74.2011 299.268 73.7435 300.904 73.7435V71.7435ZM295.635 73.5353C294.177 74.7507 293.309 76.4035 292.999 78.4155L294.976 78.7196C295.221 77.1262 295.878 75.9363 296.916 75.0717L295.635 73.5353ZM293.988 79.5675H307.768V77.5675H293.988V79.5675ZM308.756 78.4125C308.445 76.4309 307.574 74.7989 306.12 73.5873L304.839 75.1237C305.882 75.9921 306.536 77.1681 306.78 78.7225L308.756 78.4125ZM306.132 73.5977C304.685 72.3516 302.921 71.7435 300.904 71.7435V73.7435C302.491 73.7435 303.778 74.2101 304.827 75.1133L306.132 73.5977ZM328.56 70.7155H327.56V73.823L329.373 71.2987L328.56 70.7155ZM332.46 67.6475L332.076 66.7244L332.069 66.7274L332.46 67.6475ZM338.18 66.6075H339.18V65.6075H338.18V66.6075ZM338.18 74.0955L338.104 75.0926L339.18 75.1754V74.0955H338.18ZM330.9 75.9675L331.598 76.684L331.607 76.6746L330.9 75.9675ZM328.924 94.9995V95.9995H329.924V94.9995H328.924ZM320.812 94.9995H319.812V95.9995H320.812V94.9995ZM320.812 67.0235V66.0235H319.812V67.0235H320.812ZM328.56 67.0235H329.56V66.0235H328.56V67.0235ZM329.373 71.2987C330.23 70.105 331.38 69.1941 332.852 68.5677L332.069 66.7274C330.282 67.4876 328.832 68.622 327.748 70.1323L329.373 71.2987ZM332.845 68.5706C334.366 67.9368 336.138 67.6075 338.18 67.6075V65.6075C335.924 65.6075 333.883 65.9715 332.076 66.7244L332.845 68.5706ZM337.18 66.6075V74.0955H339.18V66.6075H337.18ZM338.257 73.0985C337.361 73.0295 336.717 72.9915 336.36 72.9915V74.9915C336.628 74.9915 337.197 75.0228 338.104 75.0926L338.257 73.0985ZM336.36 72.9915C333.842 72.9915 331.742 73.7117 330.193 75.2604L331.607 76.6746C332.693 75.5886 334.234 74.9915 336.36 74.9915V72.9915ZM330.203 75.251C328.624 76.7886 327.924 79.0351 327.924 81.7915H329.924C329.924 79.3479 330.542 77.7118 331.598 76.684L330.203 75.251ZM327.924 81.7915V94.9995H329.924V81.7915H327.924ZM328.924 93.9995H320.812V95.9995H328.924V93.9995ZM321.812 94.9995V67.0235H319.812V94.9995H321.812ZM320.812 68.0235H328.56V66.0235H320.812V68.0235ZM327.56 67.0235V70.7155H329.56V67.0235H327.56ZM369.998 83.2995V84.2995H370.924L370.995 83.3762L369.998 83.2995ZM348.834 83.2995V82.2995H347.59L347.857 83.5144L348.834 83.2995ZM351.538 87.4075L352.115 86.5911L351.538 87.4075ZM360.69 88.2915L361.041 89.2278L361.049 89.2249L361.056 89.2219L360.69 88.2915ZM363.862 86.2115L364.597 85.5336L363.904 84.7819L363.168 85.4917L363.862 86.2115ZM368.178 90.8915L368.931 91.5494L369.521 90.8734L368.913 90.2136L368.178 90.8915ZM348.262 93.5955L347.804 94.4849L347.815 94.4899L348.262 93.5955ZM342.646 88.4475L341.79 88.964L342.646 88.4475ZM342.594 73.6275L341.734 73.117L341.732 73.1211L342.594 73.6275ZM347.95 68.4795L348.424 69.36L348.429 69.3574L347.95 68.4795ZM363.03 68.3755L363.499 67.4924L363.03 68.3755ZM368.23 73.4715L367.358 73.9618L367.363 73.9699L367.368 73.9779L368.23 73.4715ZM351.018 74.3035L350.378 73.5353V73.5353L351.018 74.3035ZM348.73 78.5675L347.741 78.4155L347.564 79.5675H348.73V78.5675ZM362.51 78.5675V79.5675H363.679L363.498 78.4125L362.51 78.5675ZM360.222 74.3555L359.569 75.1133L359.575 75.1186L359.582 75.1237L360.222 74.3555ZM369.154 81.1155C369.154 81.1032 369.153 81.1324 369.146 81.2481C369.14 81.3478 369.13 81.4874 369.117 81.6683C369.092 82.0295 369.053 82.5474 369.001 83.2228L370.995 83.3762C371.096 82.0613 371.154 81.2702 371.154 81.1155H369.154ZM369.998 82.2995H348.834V84.2995H369.998V82.2995ZM347.857 83.5144C348.291 85.4857 349.331 87.0717 350.96 88.2239L352.115 86.5911C350.902 85.7326 350.139 84.58 349.811 83.0846L347.857 83.5144ZM350.96 88.2239C352.584 89.3724 354.566 89.9155 356.842 89.9155V87.9155C354.889 87.9155 353.334 87.4533 352.115 86.5911L350.96 88.2239ZM356.842 89.9155C358.391 89.9155 359.797 89.6944 361.041 89.2278L360.339 87.3552C359.364 87.7207 358.204 87.9155 356.842 87.9155V89.9155ZM361.056 89.2219C362.334 88.7188 363.5 87.9495 364.556 86.9314L363.168 85.4917C362.282 86.3455 361.334 86.9629 360.323 87.3611L361.056 89.2219ZM363.127 86.8895L367.443 91.5695L368.913 90.2136L364.597 85.5336L363.127 86.8895ZM367.425 90.2336C365.028 92.9773 361.488 94.4155 356.634 94.4155V96.4155C361.902 96.4155 366.058 94.8377 368.931 91.5494L367.425 90.2336ZM356.634 94.4155C353.609 94.4155 350.976 93.8345 348.709 92.7011L347.815 94.4899C350.401 95.7832 353.349 96.4155 356.634 96.4155V94.4155ZM348.719 92.7062C346.446 91.5369 344.717 89.945 343.502 87.931L341.79 88.964C343.209 91.3181 345.225 93.1581 347.805 94.4848L348.719 92.7062ZM343.502 87.931C342.287 85.9164 341.67 83.6193 341.67 81.0115H339.67C339.67 83.9504 340.37 86.6106 341.79 88.964L343.502 87.931ZM341.67 81.0115C341.67 78.4359 342.271 76.152 343.456 74.1339L341.732 73.1211C340.351 75.471 339.67 78.1097 339.67 81.0115H341.67ZM343.454 74.1381C344.679 72.0741 346.332 70.4865 348.424 69.36L347.476 67.599C345.061 68.8991 343.143 70.7436 341.734 73.117L343.454 74.1381ZM348.429 69.3574C350.559 68.1957 352.94 67.6075 355.594 67.6075V65.6075C352.632 65.6075 349.917 66.2673 347.471 67.6016L348.429 69.3574ZM355.594 67.6075C358.184 67.6075 360.499 68.1635 362.561 69.2586L363.499 67.4924C361.123 66.2302 358.481 65.6075 355.594 65.6075V67.6075ZM362.561 69.2586C364.608 70.3463 366.203 71.9075 367.358 73.9618L369.101 72.9812C367.761 70.5982 365.889 68.7621 363.499 67.4924L362.561 69.2586ZM367.368 73.9779C368.547 75.9866 369.154 78.3545 369.154 81.1155H371.154C371.154 78.0525 370.478 75.3244 369.092 72.9651L367.368 73.9779ZM355.646 71.7435C353.607 71.7435 351.829 72.3259 350.378 73.5353L351.658 75.0717C352.703 74.2011 354.01 73.7435 355.646 73.7435V71.7435ZM350.378 73.5353C348.919 74.7507 348.051 76.4035 347.741 78.4155L349.718 78.7196C349.963 77.1262 350.621 75.9363 351.658 75.0717L350.378 73.5353ZM348.73 79.5675H362.51V77.5675H348.73V79.5675ZM363.498 78.4125C363.187 76.4309 362.316 74.7989 360.862 73.5873L359.582 75.1237C360.624 75.9921 361.278 77.1681 361.522 78.7225L363.498 78.4125ZM360.874 73.5977C359.427 72.3516 357.664 71.7435 355.646 71.7435V73.7435C357.233 73.7435 358.52 74.2101 359.569 75.1133L360.874 73.5977ZM408.325 93.6475L408.919 94.4517L409.53 94.0003L409.259 93.2908L408.325 93.6475ZM405.361 94.9995L405.597 95.9714L405.607 95.9689L405.617 95.9662L405.361 94.9995ZM393.973 92.8675L393.287 93.5953L393.294 93.6018L393.973 92.8675ZM391.269 73.8875H392.269V72.8875H391.269V73.8875ZM386.953 73.8875H385.953V74.8875H386.953V73.8875ZM386.953 67.6475V66.6475H385.953V67.6475H386.953ZM391.269 67.6475V68.6475H392.269V67.6475H391.269ZM391.269 60.8355V59.8355H390.269V60.8355H391.269ZM399.381 60.8355H400.381V59.8355H399.381V60.8355ZM399.381 67.6475H398.381V68.6475H399.381V67.6475ZM406.349 67.6475H407.349V66.6475H406.349V67.6475ZM406.349 73.8875V74.8875H407.349V73.8875H406.349ZM399.381 73.8875V72.8875H398.381V73.8875H399.381ZM400.265 88.0315L399.52 88.6983L399.538 88.719L399.558 88.7386L400.265 88.0315ZM406.141 87.9275L407.075 87.5708L406.596 86.3158L405.531 87.1349L406.141 87.9275ZM407.731 92.8433C407.055 93.3425 406.189 93.7459 405.105 94.0328L405.617 95.9662C406.891 95.6291 408 95.1312 408.919 94.4517L407.731 92.8433ZM405.126 94.0277C404.065 94.2847 402.931 94.4155 401.721 94.4155V96.4155C403.076 96.4155 404.369 96.269 405.597 95.9714L405.126 94.0277ZM401.721 94.4155C398.56 94.4155 396.25 93.6111 394.652 92.1332L393.294 93.6018C395.37 95.5213 398.226 96.4155 401.721 96.4155V94.4155ZM394.659 92.1397C393.117 90.6864 392.269 88.4921 392.269 85.3795H390.269C390.269 88.8536 391.224 91.6512 393.287 93.5953L394.659 92.1397ZM392.269 85.3795V73.8875H390.269V85.3795H392.269ZM391.269 72.8875H386.953V74.8875H391.269V72.8875ZM387.953 73.8875V67.6475H385.953V73.8875H387.953ZM386.953 68.6475H391.269V66.6475H386.953V68.6475ZM392.269 67.6475V60.8355H390.269V67.6475H392.269ZM391.269 61.8355H399.381V59.8355H391.269V61.8355ZM398.381 60.8355V67.6475H400.381V60.8355H398.381ZM399.381 68.6475H406.349V66.6475H399.381V68.6475ZM405.349 67.6475V73.8875H407.349V67.6475H405.349ZM406.349 72.8875H399.381V74.8875H406.349V72.8875ZM398.381 73.8875V85.2755H400.381V73.8875H398.381ZM398.381 85.2755C398.381 86.6168 398.718 87.8024 399.52 88.6983L401.01 87.3647C400.633 86.9433 400.381 86.2915 400.381 85.2755H398.381ZM399.558 88.7386C400.415 89.5955 401.562 89.9675 402.865 89.9675V87.9675C401.949 87.9675 401.363 87.7155 400.972 87.3244L399.558 88.7386ZM402.865 89.9675C404.339 89.9675 405.653 89.565 406.751 88.7201L405.531 87.1349C404.827 87.6767 403.957 87.9675 402.865 87.9675V89.9675ZM405.207 88.2842L407.391 94.0042L409.259 93.2908L407.075 87.5708L405.207 88.2842ZM417.371 93.5955L416.898 94.4764L416.906 94.4806L416.914 94.4846L417.371 93.5955ZM411.911 88.4475L411.055 88.964L411.911 88.4475ZM411.911 73.5755L411.055 73.059L411.911 73.5755ZM417.371 68.4795L417.835 69.3659L417.839 69.3633L417.371 68.4795ZM433.231 68.4795L432.758 69.3605L432.768 69.3659L433.231 68.4795ZM438.691 73.5755L439.548 73.059L438.691 73.5755ZM438.691 88.4475L439.548 88.964L438.691 88.4475ZM433.231 93.5955L433.695 94.4819L433.705 94.4764L433.231 93.5955ZM430.423 86.6795L429.699 85.9903L429.698 85.9908L430.423 86.6795ZM430.423 75.3955L429.69 76.0753L429.699 76.0846L429.707 76.0936L430.423 75.3955ZM420.179 75.3955L420.896 76.0937L420.904 76.0847L420.179 75.3955ZM420.179 86.6795L419.455 87.3688L419.463 87.3776L420.179 86.6795ZM425.327 94.4155C422.522 94.4155 420.03 93.839 417.829 92.7064L416.914 94.4846C419.428 95.7787 422.24 96.4155 425.327 96.4155V94.4155ZM417.845 92.7146C415.675 91.5485 413.989 89.9561 412.768 87.931L411.055 88.964C412.468 91.307 414.423 93.1465 416.898 94.4764L417.845 92.7146ZM412.768 87.931C411.553 85.9164 410.935 83.6193 410.935 81.0115H408.935C408.935 83.9504 409.636 86.6106 411.055 88.964L412.768 87.931ZM410.935 81.0115C410.935 78.4038 411.553 76.1066 412.768 74.092L411.055 73.059C409.636 75.4124 408.935 78.0726 408.935 81.0115H410.935ZM412.768 74.092C413.988 72.0695 415.67 70.4967 417.835 69.3659L416.908 67.5932C414.428 68.8889 412.47 70.7135 411.055 73.059L412.768 74.092ZM417.839 69.3633C420.038 68.1994 422.527 67.6075 425.327 67.6075V65.6075C422.235 65.6075 419.42 66.2637 416.904 67.5957L417.839 69.3633ZM425.327 67.6075C428.129 67.6075 430.597 68.1994 432.758 69.3604L433.705 67.5986C431.22 66.2636 428.42 65.6075 425.327 65.6075V67.6075ZM432.768 69.3659C434.933 70.4967 436.615 72.0695 437.835 74.092L439.548 73.059C438.133 70.7135 436.175 68.8889 433.694 67.5932L432.768 69.3659ZM437.835 74.092C439.05 76.1066 439.667 78.4038 439.667 81.0115H441.667C441.667 78.0726 440.967 75.4124 439.548 73.059L437.835 74.092ZM439.667 81.0115C439.667 83.6193 439.05 85.9164 437.835 87.931L439.548 88.964C440.967 86.6106 441.667 83.9504 441.667 81.0115H439.667ZM437.835 87.931C436.614 89.9561 434.928 91.5485 432.758 92.7146L433.705 94.4764C436.18 93.1465 438.135 91.307 439.548 88.964L437.835 87.931ZM432.768 92.7092C430.606 93.839 428.133 94.4155 425.327 94.4155V96.4155C428.415 96.4155 431.212 95.7787 433.694 94.4819L432.768 92.7092ZM425.327 89.7595C427.655 89.7595 429.625 88.9722 431.148 87.3683L429.698 85.9908C428.588 87.1602 427.16 87.7595 425.327 87.7595V89.7595ZM431.148 87.3687C432.711 85.7252 433.451 83.5705 433.451 81.0115H431.451C431.451 83.1672 430.84 84.7912 429.699 85.9903L431.148 87.3687ZM433.451 81.0115C433.451 78.4535 432.712 76.3099 431.139 74.6974L429.707 76.0936C430.839 77.2545 431.451 78.8549 431.451 81.0115H433.451ZM431.157 74.7157C429.635 73.074 427.663 72.2635 425.327 72.2635V74.2635C427.152 74.2635 428.577 74.8743 429.69 76.0753L431.157 74.7157ZM425.327 72.2635C422.992 72.2635 421.008 73.0735 419.455 74.7063L420.904 76.0847C422.055 74.8748 423.503 74.2635 425.327 74.2635V72.2635ZM419.463 74.6974C417.891 76.3099 417.151 78.4535 417.151 81.0115H419.151C419.151 78.8549 419.764 77.2545 420.895 76.0936L419.463 74.6974ZM417.151 81.0115C417.151 83.5705 417.892 85.7252 419.455 87.3687L420.904 85.9903C419.763 84.7912 419.151 83.1672 419.151 81.0115H417.151ZM419.463 87.3776C421.019 88.9726 423 89.7595 425.327 89.7595V87.7595C423.495 87.7595 422.044 87.1597 420.895 85.9814L419.463 87.3776ZM484.58 94.9995L483.758 95.5687L484.056 95.9995H484.58V94.9995ZM477.56 84.8595L478.382 84.2903L478.084 83.8595H477.56V84.8595ZM469.812 84.8595V83.8595H468.812V84.8595H469.812ZM469.812 94.9995V95.9995H470.812V94.9995H469.812ZM461.388 94.9995H460.388V95.9995H461.388V94.9995ZM461.388 58.5995V57.5995H460.388V58.5995H461.388ZM485.516 60.2115L485.101 61.1214L485.106 61.1237L485.516 60.2115ZM490.976 78.8275L490.144 78.2728L490.142 78.2763L490.976 78.8275ZM485.464 83.2995L485.066 82.3824L483.945 82.8697L484.644 83.8717L485.464 83.2995ZM493.628 94.9995V95.9995H495.545L494.448 94.4273L493.628 94.9995ZM482.448 67.1275L481.804 67.8924L481.81 67.8974L481.816 67.9024L482.448 67.1275ZM469.812 65.4635V64.4635H468.812V65.4635H469.812ZM469.812 78.1515H468.812V79.1515H469.812V78.1515ZM482.448 76.4875L483.092 77.2524L482.448 76.4875ZM485.402 94.4303L478.382 84.2903L476.738 85.4287L483.758 95.5687L485.402 94.4303ZM477.56 83.8595H477.144V85.8595H477.56V83.8595ZM477.144 83.8595H469.812V85.8595H477.144V83.8595ZM468.812 84.8595V94.9995H470.812V84.8595H468.812ZM469.812 93.9995H461.388V95.9995H469.812V93.9995ZM462.388 94.9995V58.5995H460.388V94.9995H462.388ZM461.388 59.5995H477.144V57.5995H461.388V59.5995ZM477.144 59.5995C480.259 59.5995 482.902 60.1188 485.101 61.1214L485.931 59.3016C483.416 58.1549 480.477 57.5995 477.144 57.5995V59.5995ZM485.106 61.1237C487.344 62.1288 489.023 63.5351 490.189 65.332L491.867 64.243C490.468 62.0879 488.473 60.4436 485.926 59.2993L485.106 61.1237ZM490.189 65.332C491.352 67.1229 491.952 69.2675 491.952 71.8075H493.952C493.952 68.9396 493.27 66.4041 491.867 64.243L490.189 65.332ZM491.952 71.8075C491.952 74.3423 491.337 76.4831 490.144 78.2728L491.808 79.3822C493.25 77.2199 493.952 74.6807 493.952 71.8075H491.952ZM490.142 78.2763C488.979 80.037 487.302 81.41 485.066 82.3824L485.863 84.2166C488.41 83.109 490.409 81.5007 491.811 79.3788L490.142 78.2763ZM484.644 83.8717L492.808 95.5718L494.448 94.4273L486.284 82.7273L484.644 83.8717ZM493.628 93.9995H484.58V95.9995H493.628V93.9995ZM485.424 71.8075C485.424 69.5292 484.678 67.6561 483.08 66.3526L481.816 67.9024C482.853 68.7482 483.424 69.9951 483.424 71.8075H485.424ZM483.092 66.3626C481.527 65.0442 479.335 64.4635 476.676 64.4635V66.4635C479.079 66.4635 480.735 66.9922 481.804 67.8924L483.092 66.3626ZM476.676 64.4635H469.812V66.4635H476.676V64.4635ZM468.812 65.4635V78.1515H470.812V65.4635H468.812ZM469.812 79.1515H476.676V77.1515H469.812V79.1515ZM476.676 79.1515C479.335 79.1515 481.527 78.5709 483.092 77.2524L481.804 75.7226C480.735 76.6228 479.079 77.1515 476.676 77.1515V79.1515ZM483.092 77.2524C484.674 75.9204 485.424 74.0583 485.424 71.8075H483.424C483.424 73.5781 482.857 74.836 481.804 75.7226L483.092 77.2524ZM526.303 83.2995V84.2995H527.229L527.3 83.3762L526.303 83.2995ZM505.139 83.2995V82.2995H503.895L504.162 83.5144L505.139 83.2995ZM507.843 87.4075L508.42 86.5911L507.843 87.4075ZM516.995 88.2915L517.346 89.2278L517.353 89.2249L517.361 89.2219L516.995 88.2915ZM520.167 86.2115L520.902 85.5336L520.208 84.7819L519.472 85.4917L520.167 86.2115ZM524.483 90.8915L525.236 91.5494L525.826 90.8734L525.218 90.2136L524.483 90.8915ZM504.567 93.5955L504.109 94.4849L504.119 94.4899L504.567 93.5955ZM498.951 88.4475L498.094 88.964L498.951 88.4475ZM498.899 73.6275L498.039 73.117L498.036 73.1211L498.899 73.6275ZM504.255 68.4795L504.729 69.36L504.733 69.3574L504.255 68.4795ZM519.335 68.3755L519.804 67.4924L519.335 68.3755ZM524.535 73.4715L523.663 73.9618L523.668 73.9699L523.672 73.9779L524.535 73.4715ZM507.323 74.3035L506.682 73.5353V73.5353L507.323 74.3035ZM505.035 78.5675L504.046 78.4155L503.869 79.5675H505.035V78.5675ZM518.815 78.5675V79.5675H519.984L519.802 78.4125L518.815 78.5675ZM516.527 74.3555L515.874 75.1133L515.88 75.1186L515.886 75.1237L516.527 74.3555ZM525.459 81.1155C525.459 81.1032 525.458 81.1324 525.451 81.2481C525.445 81.3478 525.435 81.4874 525.422 81.6683C525.396 82.0295 525.357 82.5474 525.305 83.2228L527.3 83.3762C527.401 82.0613 527.459 81.2702 527.459 81.1155H525.459ZM526.303 82.2995H505.139V84.2995H526.303V82.2995ZM504.162 83.5144C504.596 85.4857 505.636 87.0717 507.265 88.2239L508.42 86.5911C507.206 85.7326 506.444 84.58 506.115 83.0846L504.162 83.5144ZM507.265 88.2239C508.889 89.3724 510.87 89.9155 513.147 89.9155V87.9155C511.194 87.9155 509.639 87.4533 508.42 86.5911L507.265 88.2239ZM513.147 89.9155C514.696 89.9155 516.102 89.6944 517.346 89.2278L516.643 87.3552C515.669 87.7207 514.509 87.9155 513.147 87.9155V89.9155ZM517.361 89.2219C518.638 88.7188 519.805 87.9495 520.861 86.9314L519.472 85.4917C518.587 86.3455 517.639 86.9629 516.628 87.3611L517.361 89.2219ZM519.431 86.8895L523.747 91.5695L525.218 90.2136L520.902 85.5336L519.431 86.8895ZM523.729 90.2336C521.333 92.9773 517.793 94.4155 512.939 94.4155V96.4155C518.207 96.4155 522.363 94.8377 525.236 91.5494L523.729 90.2336ZM512.939 94.4155C509.914 94.4155 507.281 93.8345 505.014 92.7011L504.119 94.4899C506.706 95.7832 509.654 96.4155 512.939 96.4155V94.4155ZM505.024 92.7062C502.75 91.5369 501.022 89.945 499.807 87.931L498.094 88.964C499.514 91.3181 501.53 93.1581 504.109 94.4848L505.024 92.7062ZM499.807 87.931C498.592 85.9164 497.975 83.6193 497.975 81.0115H495.975C495.975 83.9504 496.675 86.6106 498.094 88.964L499.807 87.931ZM497.975 81.0115C497.975 78.4359 498.576 76.152 499.761 74.1339L498.036 73.1211C496.656 75.471 495.975 78.1097 495.975 81.0115H497.975ZM499.758 74.1381C500.984 72.0741 502.636 70.4865 504.729 69.36L503.78 67.599C501.366 68.8991 499.448 70.7436 498.039 73.117L499.758 74.1381ZM504.733 69.3574C506.863 68.1957 509.245 67.6075 511.899 67.6075V65.6075C508.937 65.6075 506.222 66.2673 503.776 67.6016L504.733 69.3574ZM511.899 67.6075C514.489 67.6075 516.804 68.1635 518.865 69.2586L519.804 67.4924C517.428 66.2302 514.786 65.6075 511.899 65.6075V67.6075ZM518.865 69.2586C520.913 70.3463 522.507 71.9075 523.663 73.9618L525.406 72.9812C524.066 70.5982 522.194 68.7621 519.804 67.4924L518.865 69.2586ZM523.672 73.9779C524.852 75.9866 525.459 78.3545 525.459 81.1155H527.459C527.459 78.0525 526.782 75.3244 525.397 72.9651L523.672 73.9779ZM511.951 71.7435C509.912 71.7435 508.134 72.3259 506.682 73.5353L507.963 75.0717C509.008 74.2011 510.315 73.7435 511.951 73.7435V71.7435ZM506.682 73.5353C505.224 74.7507 504.356 76.4035 504.046 78.4155L506.023 78.7196C506.268 77.1262 506.925 75.9363 507.963 75.0717L506.682 73.5353ZM505.035 79.5675H518.815V77.5675H505.035V79.5675ZM519.802 78.4125C519.492 76.4309 518.621 74.7989 517.167 73.5873L515.886 75.1237C516.928 75.9921 517.583 77.1681 517.827 78.7225L519.802 78.4125ZM517.179 73.5977C515.732 72.3516 513.968 71.7435 511.951 71.7435V73.7435C513.538 73.7435 514.825 74.2101 515.874 75.1133L517.179 73.5977ZM560.719 67.0235H561.719V66.0235H560.719V67.0235ZM556.715 101.76L556.032 101.029L556.715 101.76ZM537.319 104.516L537.057 105.481L537.319 104.516ZM531.287 101.656L530.412 101.171L529.999 101.917L530.671 102.443L531.287 101.656ZM534.511 95.8315L535.147 95.0596L534.219 94.2952L533.636 95.3472L534.511 95.8315ZM538.983 98.1195L539.294 97.169L539.286 97.1663L539.277 97.1637L538.983 98.1195ZM550.579 97.0795L549.901 96.3447L549.891 96.3537L549.882 96.363L550.579 97.0795ZM552.607 90.1635H553.607V87.5798L551.868 89.4903L552.607 90.1635ZM536.695 91.9835L536.219 92.8631L536.228 92.8677L536.237 92.8721L536.695 91.9835ZM531.651 87.1995L532.505 86.6786L531.651 87.1995ZM531.651 73.0555L532.505 73.5764L531.651 73.0555ZM536.695 68.3235L537.16 69.2091L537.165 69.2063L536.695 68.3235ZM553.023 70.6115L552.239 71.2325L554.023 73.4842V70.6115H553.023ZM553.023 67.0235V66.0235H552.023V67.0235H553.023ZM550.631 85.1195L551.31 85.8543L551.31 85.8536L550.631 85.1195ZM550.631 75.1875L549.943 75.913L549.953 75.922L549.962 75.9308L550.631 75.1875ZM540.075 75.1875L540.744 75.9309L540.754 75.9216L540.075 75.1875ZM540.075 85.1195L539.396 85.8537L539.406 85.8628L540.075 85.1195ZM559.719 67.0235V90.3195H561.719V67.0235H559.719ZM559.719 90.3195C559.719 95.2879 558.429 98.7883 556.032 101.029L557.398 102.49C560.341 99.7387 561.719 95.6125 561.719 90.3195H559.719ZM556.032 101.029C553.612 103.293 549.995 104.504 545.015 104.504V106.504C550.297 106.504 554.48 105.219 557.398 102.49L556.032 101.029ZM545.015 104.504C542.393 104.504 539.916 104.184 537.581 103.55L537.057 105.481C539.576 106.164 542.229 106.504 545.015 106.504V104.504ZM537.581 103.55C535.253 102.919 533.371 102.016 531.904 100.868L530.671 102.443C532.393 103.791 534.532 104.795 537.057 105.481L537.581 103.55ZM532.162 102.14L535.386 96.3158L533.636 95.3472L530.412 101.171L532.162 102.14ZM533.876 96.6034C535.176 97.6741 536.79 98.491 538.689 99.0753L539.277 97.1637C537.571 96.6387 536.204 95.9302 535.147 95.0596L533.876 96.6034ZM538.672 99.07C540.57 99.6904 542.478 100.004 544.391 100.004V98.0035C542.699 98.0035 541.002 97.7273 539.294 97.169L538.672 99.07ZM544.391 100.004C547.326 100.004 549.695 99.3364 551.277 97.796L549.882 96.363C548.829 97.3879 547.073 98.0035 544.391 98.0035V100.004ZM551.258 97.8143C552.885 96.3119 553.607 94.0907 553.607 91.3595H551.607C551.607 93.759 550.977 95.3512 549.901 96.3447L551.258 97.8143ZM553.607 91.3595V90.1635H551.607V91.3595H553.607ZM551.868 89.4903C549.981 91.563 547.326 92.6475 543.767 92.6475V94.6475C547.765 94.6475 551.004 93.4094 553.347 90.8367L551.868 89.4903ZM543.767 92.6475C541.352 92.6475 539.153 92.1266 537.154 91.0949L536.237 92.8721C538.536 94.0591 541.052 94.6475 543.767 94.6475V92.6475ZM537.171 91.104C535.211 90.0437 533.66 88.5726 532.505 86.6786L530.798 87.7204C532.138 89.9171 533.95 91.6353 536.219 92.8631L537.171 91.104ZM532.505 86.6786C531.363 84.8076 530.779 82.6346 530.779 80.1275H528.779C528.779 82.9591 529.443 85.5007 530.798 87.7204L532.505 86.6786ZM530.779 80.1275C530.779 77.6204 531.363 75.4474 532.505 73.5764L530.798 72.5346C529.443 74.7543 528.779 77.296 528.779 80.1275H530.779ZM532.505 73.5764C533.659 71.685 535.206 70.234 537.16 69.2091L536.231 67.438C533.955 68.6317 532.14 70.3353 530.798 72.5346L532.505 73.5764ZM537.165 69.2063C539.162 68.1434 541.357 67.6075 543.767 67.6075V65.6075C541.047 65.6075 538.527 66.2156 536.225 67.4408L537.165 69.2063ZM543.767 67.6075C547.583 67.6075 550.351 68.8493 552.239 71.2325L553.807 69.9905C551.466 67.035 548.064 65.6075 543.767 65.6075V67.6075ZM554.023 70.6115V67.0235H552.023V70.6115H554.023ZM553.023 68.0235H560.719V66.0235H553.023V68.0235ZM545.379 87.9915C547.735 87.9915 549.742 87.3011 551.31 85.8543L549.953 84.3847C548.816 85.4339 547.322 85.9915 545.379 85.9915V87.9915ZM551.31 85.8536C552.92 84.3648 553.711 82.4258 553.711 80.1275H551.711C551.711 81.9199 551.116 83.3088 549.952 84.3854L551.31 85.8536ZM553.711 80.1275C553.711 77.8293 552.919 75.9014 551.3 74.4442L549.962 75.9308C551.117 76.9696 551.711 78.3351 551.711 80.1275H553.711ZM551.319 74.462C549.753 72.9761 547.742 72.2635 545.379 72.2635V74.2635C547.315 74.2635 548.805 74.8336 549.943 75.913L551.319 74.462ZM545.379 72.2635C543.015 72.2635 540.993 72.976 539.396 74.4534L540.754 75.9216C541.93 74.8336 543.444 74.2635 545.379 74.2635V72.2635ZM539.406 74.4442C537.787 75.9014 536.995 77.8293 536.995 80.1275H538.995C538.995 78.3351 539.59 76.9696 540.744 75.9308L539.406 74.4442ZM536.995 80.1275C536.995 82.4258 537.787 84.3648 539.396 85.8536L540.754 84.3854C539.59 83.3088 538.995 81.9199 538.995 80.1275H536.995ZM539.406 85.8628C541.004 87.3011 543.023 87.9915 545.379 87.9915V85.9915C543.437 85.9915 541.919 85.434 540.744 84.3762L539.406 85.8628ZM568.269 67.0235V66.0235H567.269V67.0235H568.269ZM576.381 67.0235H577.381V66.0235H576.381V67.0235ZM576.381 94.9995V95.9995H577.381V94.9995H576.381ZM568.269 94.9995H567.269V95.9995H568.269V94.9995ZM568.685 61.8235L568.006 62.5573L568.685 61.8235ZM568.685 55.3755L569.365 56.1093L568.685 55.3755ZM575.965 55.3235L575.301 56.0709V56.0709L575.965 55.3235ZM575.965 61.8235L576.645 62.5573L576.652 62.5506L576.659 62.5438L575.965 61.8235ZM568.269 68.0235H576.381V66.0235H568.269V68.0235ZM575.381 67.0235V94.9995H577.381V67.0235H575.381ZM576.381 93.9995H568.269V95.9995H576.381V93.9995ZM569.269 94.9995V67.0235H567.269V94.9995H569.269ZM572.325 62.1235C571.041 62.1235 570.085 61.7568 569.365 61.0898L568.006 62.5573C569.158 63.6236 570.628 64.1235 572.325 64.1235V62.1235ZM569.365 61.0898C568.634 60.4135 568.281 59.6054 568.281 58.5995H566.281C566.281 60.159 566.864 61.5002 568.006 62.5573L569.365 61.0898ZM568.281 58.5995C568.281 57.5937 568.634 56.7855 569.365 56.1093L568.006 54.6417C566.864 55.6989 566.281 57.04 566.281 58.5995H568.281ZM569.365 56.1093C570.085 55.4422 571.041 55.0755 572.325 55.0755V53.0755C570.628 53.0755 569.158 53.5755 568.006 54.6418L569.365 56.1093ZM572.325 55.0755C573.62 55.0755 574.582 55.4316 575.301 56.0709L576.63 54.5761C575.477 53.5515 574.012 53.0755 572.325 53.0755V55.0755ZM575.301 56.0709C576.024 56.7139 576.369 57.4823 576.369 58.4435H578.369C578.369 56.9087 577.778 55.5971 576.63 54.5761L575.301 56.0709ZM576.369 58.4435C576.369 59.5361 576.003 60.3988 575.272 61.1032L576.659 62.5438C577.799 61.4456 578.369 60.0549 578.369 58.4435H576.369ZM575.286 61.0898C574.566 61.7568 573.609 62.1235 572.325 62.1235V64.1235C574.023 64.1235 575.493 63.6236 576.645 62.5573L575.286 61.0898ZM586.51 94.5835L586.253 95.55L586.26 95.5519L586.267 95.5537L586.51 94.5835ZM581.206 92.3995L580.299 91.9784L579.936 92.7608L580.656 93.2349L581.206 92.3995ZM583.91 86.5755L584.448 85.7328L583.485 85.1171L583.003 86.1544L583.91 86.5755ZM588.434 88.5515L588.152 89.5109L588.161 89.5134L588.169 89.5158L588.434 88.5515ZM597.378 85.0155L597.031 85.9533L597.378 85.0155ZM593.062 84.1315L592.912 85.1202L592.925 85.1222L592.938 85.1238L593.062 84.1315ZM587.394 82.9355L587.683 81.9783L587.394 82.9355ZM583.494 80.5435L582.765 81.2282L582.771 81.234L582.776 81.2397L583.494 80.5435ZM583.39 70.9755L582.59 70.3755L582.588 70.3788L583.39 70.9755ZM587.862 67.7515L587.502 66.8186L587.496 66.8208L587.862 67.7515ZM600.706 67.2835L600.48 68.2576L600.49 68.2599L600.5 68.2621L600.706 67.2835ZM605.594 69.0515L606.5 69.4757L606.884 68.6551L606.105 68.192L605.594 69.0515ZM602.89 74.8235L602.399 75.6948L603.338 76.2238L603.796 75.2477L602.89 74.8235ZM590.93 73.4715L590.441 72.599L590.93 73.4715ZM591.034 77.1635L591.381 76.2258L591.034 77.1635ZM595.506 78.1515L595.67 77.165L595.657 77.1629L595.506 78.1515ZM601.122 79.3995L600.826 80.3548L600.837 80.358L600.847 80.361L601.122 79.3995ZM604.918 81.7395L604.189 82.4242L604.918 81.7395ZM604.97 91.1515L605.763 91.7612L604.97 91.1515ZM600.394 94.3235L600.74 95.2619L600.749 95.2585L600.394 94.3235ZM593.322 94.4155C591.08 94.4155 588.891 94.1479 586.753 93.6134L586.267 95.5537C588.567 96.1285 590.919 96.4155 593.322 96.4155V94.4155ZM586.767 93.617C584.609 93.0439 582.952 92.3513 581.756 91.5641L580.656 93.2349C582.095 94.1811 583.974 94.9445 586.253 95.55L586.767 93.617ZM582.113 92.8206L584.817 86.9966L583.003 86.1544L580.299 91.9784L582.113 92.8206ZM583.372 87.4182C584.716 88.2769 586.314 88.9705 588.152 89.5109L588.716 87.5921C587.018 87.0926 585.6 86.4688 584.448 85.7328L583.372 87.4182ZM588.169 89.5158C590.017 90.023 591.839 90.2795 593.634 90.2795V88.2795C592.032 88.2795 590.387 88.0507 588.699 87.5872L588.169 89.5158ZM593.634 90.2795C595.4 90.2795 596.873 90.0662 597.939 89.5387C598.485 89.2681 598.957 88.899 599.29 88.4049C599.627 87.904 599.782 87.3333 599.782 86.7315H597.782C597.782 86.9791 597.723 87.1515 597.631 87.2877C597.535 87.4305 597.363 87.5923 597.051 87.7463C596.401 88.0682 595.3 88.2795 593.634 88.2795V90.2795ZM599.782 86.7315C599.782 86.1215 599.597 85.5505 599.205 85.0713C598.826 84.6076 598.304 84.292 597.725 84.0778L597.031 85.9533C597.388 86.0857 597.568 86.2294 597.657 86.3377C597.733 86.4305 597.782 86.5442 597.782 86.7315H599.782ZM597.725 84.0778C596.678 83.6898 595.146 83.3842 593.186 83.1392L592.938 85.1238C594.861 85.3642 596.206 85.6479 597.031 85.9533L597.725 84.0778ZM593.212 83.1428C590.951 82.8002 589.112 82.4103 587.683 81.9783L587.105 83.8927C588.657 84.3621 590.597 84.7695 592.912 85.1202L593.212 83.1428ZM587.683 81.9783C586.359 81.578 585.206 80.8723 584.212 79.8474L582.776 81.2397C584.001 82.5027 585.447 83.3917 587.105 83.8927L587.683 81.9783ZM584.223 79.8588C583.376 78.9569 582.882 77.6059 582.882 75.6555H580.882C580.882 77.9345 581.463 79.8421 582.765 81.2282L584.223 79.8588ZM582.882 75.6555C582.882 74.0911 583.322 72.7428 584.192 71.5722L582.588 70.3788C581.447 71.9122 580.882 73.6839 580.882 75.6555H582.882ZM584.19 71.5755C585.098 70.3649 586.424 69.391 588.228 68.6823L587.496 66.8208C585.418 67.6374 583.762 68.8128 582.59 70.3755L584.19 71.5755ZM588.222 68.6844C590.058 67.976 592.253 67.6075 594.83 67.6075V65.6075C592.068 65.6075 589.618 66.0017 587.502 66.8186L588.222 68.6844ZM594.83 67.6075C596.729 67.6075 598.612 67.824 600.48 68.2576L600.932 66.3094C598.917 65.8417 596.883 65.6075 594.83 65.6075V67.6075ZM600.5 68.2621C602.404 68.6629 603.921 69.2205 605.083 69.911L606.105 68.192C604.701 67.3572 602.96 66.7361 600.912 66.305L600.5 68.2621ZM604.688 68.6273L601.984 74.3993L603.796 75.2477L606.5 69.4757L604.688 68.6273ZM603.381 73.9523C600.765 72.4785 597.908 71.7435 594.83 71.7435V73.7435C597.576 73.7435 600.092 74.3952 602.399 75.6948L603.381 73.9523ZM594.83 71.7435C593.036 71.7435 591.531 71.989 590.441 72.599L591.419 74.344C592.063 73.9834 593.157 73.7435 594.83 73.7435V71.7435ZM590.441 72.599C589.369 73.1994 588.63 74.108 588.63 75.3435H590.63C590.63 75.0536 590.757 74.7143 591.419 74.344L590.441 72.599ZM588.63 75.3435C588.63 75.9674 588.803 76.5583 589.189 77.0593C589.568 77.5498 590.095 77.8821 590.687 78.1013L591.381 76.2258C591.037 76.0982 590.862 75.9538 590.773 75.8377C590.691 75.732 590.63 75.5863 590.63 75.3435H588.63ZM590.687 78.1013C591.723 78.4852 593.298 78.8263 595.355 79.1401L595.657 77.1629C593.623 76.8527 592.217 76.5352 591.381 76.2258L590.687 78.1013ZM595.342 79.1379C597.606 79.5152 599.429 79.9224 600.826 80.3548L601.418 78.4442C599.903 77.9753 597.982 77.5505 595.67 77.1651L595.342 79.1379ZM600.847 80.361C602.123 80.7256 603.233 81.4067 604.189 82.4242L605.647 81.0548C604.453 79.7843 603.033 78.9054 601.397 78.438L600.847 80.361ZM604.189 82.4242C605.042 83.3319 605.53 84.653 605.53 86.5235H607.53C607.53 84.3033 606.943 82.4351 605.647 81.0548L604.189 82.4242ZM605.53 86.5235C605.53 88.0402 605.081 89.3676 604.177 90.5418L605.763 91.7612C606.939 90.2314 607.53 88.4735 607.53 86.5235H605.53ZM604.177 90.5418C603.276 91.713 601.922 92.6746 600.039 93.3885L600.749 95.2585C602.888 94.4471 604.584 93.294 605.763 91.7612L604.177 90.5418ZM600.048 93.3852C598.211 94.0622 595.976 94.4155 593.322 94.4155V96.4155C596.145 96.4155 598.625 96.0408 600.74 95.2619L600.048 93.3852ZM629.579 93.6475L630.173 94.4517L630.784 94.0003L630.513 93.2908L629.579 93.6475ZM626.615 94.9995L626.851 95.9714L626.861 95.9689L626.871 95.9662L626.615 94.9995ZM615.227 92.8675L614.541 93.5953L614.548 93.6018L615.227 92.8675ZM612.523 73.8875H613.523V72.8875H612.523V73.8875ZM608.207 73.8875H607.207V74.8875H608.207V73.8875ZM608.207 67.6475V66.6475H607.207V67.6475H608.207ZM612.523 67.6475V68.6475H613.523V67.6475H612.523ZM612.523 60.8355V59.8355H611.523V60.8355H612.523ZM620.635 60.8355H621.635V59.8355H620.635V60.8355ZM620.635 67.6475H619.635V68.6475H620.635V67.6475ZM627.603 67.6475H628.603V66.6475H627.603V67.6475ZM627.603 73.8875V74.8875H628.603V73.8875H627.603ZM620.635 73.8875V72.8875H619.635V73.8875H620.635ZM621.519 88.0315L620.774 88.6983L620.792 88.719L620.812 88.7386L621.519 88.0315ZM627.395 87.9275L628.329 87.5708L627.85 86.3158L626.785 87.1349L627.395 87.9275ZM628.985 92.8433C628.309 93.3425 627.443 93.7459 626.359 94.0328L626.871 95.9662C628.144 95.6291 629.254 95.1312 630.173 94.4517L628.985 92.8433ZM626.379 94.0277C625.319 94.2847 624.185 94.4155 622.975 94.4155V96.4155C624.33 96.4155 625.623 96.269 626.851 95.9714L626.379 94.0277ZM622.975 94.4155C619.814 94.4155 617.504 93.6111 615.906 92.1332L614.548 93.6018C616.624 95.5213 619.48 96.4155 622.975 96.4155V94.4155ZM615.913 92.1397C614.371 90.6864 613.523 88.4921 613.523 85.3795H611.523C611.523 88.8536 612.478 91.6512 614.541 93.5953L615.913 92.1397ZM613.523 85.3795V73.8875H611.523V85.3795H613.523ZM612.523 72.8875H608.207V74.8875H612.523V72.8875ZM609.207 73.8875V67.6475H607.207V73.8875H609.207ZM608.207 68.6475H612.523V66.6475H608.207V68.6475ZM613.523 67.6475V60.8355H611.523V67.6475H613.523ZM612.523 61.8355H620.635V59.8355H612.523V61.8355ZM619.635 60.8355V67.6475H621.635V60.8355H619.635ZM620.635 68.6475H627.603V66.6475H620.635V68.6475ZM626.603 67.6475V73.8875H628.603V67.6475H626.603ZM627.603 72.8875H620.635V74.8875H627.603V72.8875ZM619.635 73.8875V85.2755H621.635V73.8875H619.635ZM619.635 85.2755C619.635 86.6168 619.972 87.8024 620.774 88.6983L622.264 87.3647C621.887 86.9433 621.635 86.2915 621.635 85.2755H619.635ZM620.812 88.7386C621.669 89.5955 622.816 89.9675 624.119 89.9675V87.9675C623.203 87.9675 622.617 87.7155 622.226 87.3244L620.812 88.7386ZM624.119 89.9675C625.593 89.9675 626.906 89.565 628.005 88.7201L626.785 87.1349C626.081 87.6767 625.211 87.9675 624.119 87.9675V89.9675ZM626.461 88.2842L628.645 94.0042L630.513 93.2908L628.329 87.5708L626.461 88.2842ZM660.517 83.2995V84.2995H661.443L661.514 83.3762L660.517 83.2995ZM639.353 83.2995V82.2995H638.109L638.377 83.5144L639.353 83.2995ZM642.057 87.4075L642.635 86.5911L642.057 87.4075ZM651.209 88.2915L651.56 89.2278L651.568 89.2249L651.576 89.2219L651.209 88.2915ZM654.381 86.2115L655.117 85.5336L654.423 84.7819L653.687 85.4917L654.381 86.2115ZM658.697 90.8915L659.451 91.5494L660.041 90.8734L659.432 90.2136L658.697 90.8915ZM638.781 93.5955L638.324 94.4849L638.334 94.4899L638.781 93.5955ZM633.165 88.4475L632.309 88.964L633.165 88.4475ZM633.113 73.6275L632.254 73.117L632.251 73.1211L633.113 73.6275ZM638.469 68.4795L638.943 69.36L638.948 69.3574L638.469 68.4795ZM653.549 68.3755L654.019 67.4924L653.549 68.3755ZM658.749 73.4715L657.878 73.9618L657.882 73.9699L657.887 73.9779L658.749 73.4715ZM641.537 74.3035L640.897 73.5353V73.5353L641.537 74.3035ZM639.249 78.5675L638.261 78.4155L638.084 79.5675H639.249V78.5675ZM653.029 78.5675V79.5675H654.198L654.017 78.4125L653.029 78.5675ZM650.741 74.3555L650.089 75.1133L650.095 75.1186L650.101 75.1237L650.741 74.3555ZM659.673 81.1155C659.673 81.1032 659.673 81.1324 659.666 81.2481C659.659 81.3478 659.65 81.4874 659.637 81.6683C659.611 82.0295 659.572 82.5474 659.52 83.2228L661.514 83.3762C661.616 82.0613 661.673 81.2702 661.673 81.1155H659.673ZM660.517 82.2995H639.353V84.2995H660.517V82.2995ZM638.377 83.5144C638.81 85.4857 639.851 87.0717 641.48 88.2239L642.635 86.5911C641.421 85.7326 640.659 84.58 640.33 83.0846L638.377 83.5144ZM641.48 88.2239C643.104 89.3724 645.085 89.9155 647.361 89.9155V87.9155C645.408 87.9155 643.854 87.4533 642.635 86.5911L641.48 88.2239ZM647.361 89.9155C648.911 89.9155 650.316 89.6944 651.56 89.2278L650.858 87.3552C649.884 87.7207 648.724 87.9155 647.361 87.9155V89.9155ZM651.576 89.2219C652.853 88.7188 654.02 87.9495 655.076 86.9314L653.687 85.4917C652.802 86.3455 651.854 86.9629 650.843 87.3611L651.576 89.2219ZM653.646 86.8895L657.962 91.5695L659.432 90.2136L655.117 85.5336L653.646 86.8895ZM657.944 90.2336C655.547 92.9773 652.008 94.4155 647.153 94.4155V96.4155C652.421 96.4155 656.578 94.8377 659.451 91.5494L657.944 90.2336ZM647.153 94.4155C644.129 94.4155 641.495 93.8345 639.229 92.7011L638.334 94.4899C640.921 95.7832 643.869 96.4155 647.153 96.4155V94.4155ZM639.239 92.7062C636.965 91.5369 635.236 89.945 634.022 87.931L632.309 88.964C633.729 91.3181 635.744 93.1581 638.324 94.4848L639.239 92.7062ZM634.022 87.931C632.807 85.9164 632.189 83.6193 632.189 81.0115H630.189C630.189 83.9504 630.89 86.6106 632.309 88.964L634.022 87.931ZM632.189 81.0115C632.189 78.4359 632.79 76.152 633.976 74.1339L632.251 73.1211C630.871 75.471 630.189 78.1097 630.189 81.0115H632.189ZM633.973 74.1381C635.199 72.0741 636.851 70.4865 638.943 69.36L637.995 67.599C635.581 68.8991 633.663 70.7436 632.254 73.117L633.973 74.1381ZM638.948 69.3574C641.078 68.1957 643.459 67.6075 646.113 67.6075V65.6075C643.151 65.6075 640.437 66.2673 637.991 67.6016L638.948 69.3574ZM646.113 67.6075C648.704 67.6075 651.019 68.1635 653.08 69.2586L654.019 67.4924C651.643 66.2302 649.001 65.6075 646.113 65.6075V67.6075ZM653.08 69.2586C655.128 70.3463 656.722 71.9075 657.878 73.9618L659.621 72.9812C658.28 70.5982 656.409 68.7621 654.019 67.4924L653.08 69.2586ZM657.887 73.9779C659.067 75.9866 659.673 78.3545 659.673 81.1155H661.673C661.673 78.0525 660.997 75.3244 659.612 72.9651L657.887 73.9779ZM646.165 71.7435C644.127 71.7435 642.348 72.3259 640.897 73.5353L642.178 75.0717C643.222 74.2011 644.529 73.7435 646.165 73.7435V71.7435ZM640.897 73.5353C639.439 74.7507 638.571 76.4035 638.261 78.4155L640.238 78.7196C640.483 77.1262 641.14 75.9363 642.178 75.0717L640.897 73.5353ZM639.249 79.5675H653.029V77.5675H639.249V79.5675ZM654.017 78.4125C653.706 76.4309 652.836 74.7989 651.382 73.5873L650.101 75.1237C651.143 75.9921 651.798 77.1681 652.041 78.7225L654.017 78.4125ZM651.394 73.5977C649.947 72.3516 648.183 71.7435 646.165 71.7435V73.7435C647.753 73.7435 649.04 74.2101 650.089 75.1133L651.394 73.5977ZM673.822 70.7155H672.822V73.823L674.634 71.2987L673.822 70.7155ZM677.722 67.6475L677.337 66.7244L677.331 66.7274L677.722 67.6475ZM683.442 66.6075H684.442V65.6075H683.442V66.6075ZM683.442 74.0955L683.365 75.0926L684.442 75.1754V74.0955H683.442ZM676.162 75.9675L676.86 76.684L676.869 76.6746L676.162 75.9675ZM674.186 94.9995V95.9995H675.186V94.9995H674.186ZM666.074 94.9995H665.074V95.9995H666.074V94.9995ZM666.074 67.0235V66.0235H665.074V67.0235H666.074ZM673.822 67.0235H674.822V66.0235H673.822V67.0235ZM674.634 71.2987C675.491 70.105 676.642 69.1941 678.114 68.5677L677.331 66.7274C675.544 67.4876 674.094 68.622 673.01 70.1323L674.634 71.2987ZM678.107 68.5706C679.628 67.9368 681.4 67.6075 683.442 67.6075V65.6075C681.186 65.6075 679.144 65.9715 677.337 66.7244L678.107 68.5706ZM682.442 66.6075V74.0955H684.442V66.6075H682.442ZM683.519 73.0985C682.623 73.0295 681.979 72.9915 681.622 72.9915V74.9915C681.89 74.9915 682.459 75.0228 683.365 75.0926L683.519 73.0985ZM681.622 72.9915C679.103 72.9915 677.004 73.7117 675.455 75.2604L676.869 76.6746C677.955 75.5886 679.495 74.9915 681.622 74.9915V72.9915ZM675.464 75.251C673.885 76.7886 673.186 79.0351 673.186 81.7915H675.186C675.186 79.3479 675.804 77.7118 676.86 76.684L675.464 75.251ZM673.186 81.7915V94.9995H675.186V81.7915H673.186ZM674.186 93.9995H666.074V95.9995H674.186V93.9995ZM667.074 94.9995V67.0235H665.074V94.9995H667.074ZM666.074 68.0235H673.822V66.0235H666.074V68.0235ZM672.822 67.0235V70.7155H674.822V67.0235H672.822Z" fill="black"/>
<defs>
<filter id="filter0_d_422_97" x="0" y="0" width="757" height="159" filterUnits="userSpaceOnUse" color-interpolation-filters="sRGB">
<feFlood flood-opacity="0" result="BackgroundImageFix"/>
<feColorMatrix in="SourceAlpha" type="matrix" values="0 0 0 0 0 0 0 0 0 0 0 0 0 0 0 0 0 0 127 0" result="hardAlpha"/>
<feOffset dx="-3" dy="-4"/>
<feGaussianBlur stdDeviation="4.5"/>
<feComposite in2="hardAlpha" operator="out"/>
<feColorMatrix type="matrix" values="0 0 0 0 1 0 0 0 0 0.568627 0 0 0 0 0.301961 0 0 0 0.8 0"/>
<feBlend mode="normal" in2="BackgroundImageFix" result="effect1_dropShadow_422_97"/>
<feBlend mode="normal" in="SourceGraphic" in2="effect1_dropShadow_422_97" result="shape"/>
</filter>
<filter id="filter1_d_422_97" x="15" y="11" width="755" height="157" filterUnits="userSpaceOnUse" color-interpolation-filters="sRGB">
<feFlood flood-opacity="0" result="BackgroundImageFix"/>
<feColorMatrix in="SourceAlpha" type="matrix" values="0 0 0 0 0 0 0 0 0 0 0 0 0 0 0 0 0 0 127 0" result="hardAlpha"/>
<feOffset dx="11" dy="6"/>
<feGaussianBlur stdDeviation="6.5"/>
<feComposite in2="hardAlpha" operator="out"/>
<feColorMatrix type="matrix" values="0 0 0 0 1 0 0 0 0 0.568627 0 0 0 0 0.301961 0 0 0 0.8 0"/>
<feBlend mode="normal" in2="BackgroundImageFix" result="effect1_dropShadow_422_97"/>
<feBlend mode="normal" in="SourceGraphic" in2="effect1_dropShadow_422_97" result="shape"/>
</filter>
</defs>
</svg>
