<svg width="857" height="104" viewBox="0 0 857 104" fill="none" xmlns="http://www.w3.org/2000/svg">
<rect y="61" width="857" height="43" fill="#F6321A"/>
<path d="M69.375 75H63.125V68.75V62.5H56.875V56.25H50.625V50H44.375H38.125H31.875H25.625V56.25V62.5V68.75V75H19.375H13.125V68.75V62.5V56.25V50V43.75V37.5V31.25V25V18.75V12.5V6.25V0H19.375H25.625H31.875H38.125H44.375H50.625H56.875H63.125V6.25H69.375V12.5H75.625V18.75V25V31.25V37.5H69.375V43.75H63.125V50H69.375V56.25H75.625V62.5V68.75V75H69.375ZM50.625 37.5H56.875V31.25H63.125V25V18.75H56.875V12.5H50.625H44.375H38.125H31.875H25.625V18.75V25V31.25V37.5H31.875H38.125H44.375H50.625ZM138.125 75H131.875H125.625H119.375H113.125H106.875H100.625H94.375V68.75H88.125V62.5V56.25V50V43.75V37.5H94.375V31.25H100.625V25H106.875H113.125H119.375H125.625H131.875H138.125H144.375V31.25H150.625V37.5V43.75V50H144.375V56.25H138.125H131.875H125.625H119.375H113.125H106.875H100.625V62.5H106.875H113.125H119.375H125.625H131.875H138.125H144.375H150.625V68.75H144.375V75H138.125ZM131.875 43.75H138.125V37.5H131.875H125.625H119.375H113.125H106.875V43.75H113.125H119.375H125.625H131.875ZM206.875 100H200.625H194.375H188.125H181.875H175.625H169.375V93.75H163.125V87.5V81.25H169.375H175.625V87.5H181.875H188.125H194.375H200.625H206.875V81.25H213.125V75H206.875H200.625H194.375H188.125H181.875H175.625V68.75H169.375V62.5H163.125V56.25V50V43.75V37.5H169.375V31.25H175.625V25H181.875H188.125H194.375H200.625H206.875V31.25H213.125V25H219.375H225.625V31.25V37.5V43.75V50V56.25V62.5V68.75V75V81.25V87.5H219.375V93.75H213.125V100H206.875ZM200.625 62.5H206.875V56.25H213.125V50V43.75H206.875V37.5H200.625H194.375H188.125H181.875V43.75H175.625V50V56.25H181.875V62.5H188.125H194.375H200.625ZM281.875 75H275.625H269.375H263.125H256.875H250.625V68.75V62.5H256.875H263.125V56.25V50V43.75V37.5H256.875H250.625V31.25V25H256.875H263.125H269.375H275.625V31.25V37.5V43.75V50V56.25V62.5H281.875H288.125V68.75V75H281.875ZM269.375 18.75H263.125V12.5V6.25H269.375H275.625V12.5V18.75H269.375ZM350.625 75H344.375H338.125H331.875H325.625H319.375H313.125H306.875H300.625V68.75V62.5H306.875H313.125H319.375H325.625H331.875H338.125H344.375H350.625V56.25H344.375H338.125H331.875H325.625H319.375H313.125H306.875V50H300.625V43.75V37.5V31.25H306.875V25H313.125H319.375H325.625H331.875H338.125H344.375H350.625H356.875V31.25V37.5H350.625H344.375H338.125H331.875H325.625H319.375H313.125V43.75H319.375H325.625H331.875H338.125H344.375H350.625H356.875V50H363.125V56.25V62.5V68.75H356.875V75H350.625ZM419.375 75H413.125H406.875H400.625V68.75H394.375V62.5H388.125V56.25V50V43.75V37.5V31.25H381.875H375.625V25V18.75H381.875H388.125V12.5V6.25V0H394.375H400.625V6.25V12.5V18.75H406.875H413.125V25V31.25H406.875H400.625V37.5V43.75V50V56.25H406.875V62.5H413.125H419.375V56.25H425.625V50H431.875H438.125V56.25V62.5H431.875V68.75H425.625V75H419.375ZM500.625 75H494.375H488.125H481.875H475.625H469.375H463.125H456.875V68.75H450.625V62.5V56.25V50V43.75V37.5H456.875V31.25H463.125V25H469.375H475.625H481.875H488.125H494.375H500.625H506.875V31.25H513.125V37.5V43.75V50H506.875V56.25H500.625H494.375H488.125H481.875H475.625H469.375H463.125V62.5H469.375H475.625H481.875H488.125H494.375H500.625H506.875H513.125V68.75H506.875V75H500.625ZM494.375 43.75H500.625V37.5H494.375H488.125H481.875H475.625H469.375V43.75H475.625H481.875H488.125H494.375ZM531.875 75H525.625V68.75V62.5V56.25V50V43.75V37.5V31.25V25H531.875H538.125V31.25V37.5H544.375V31.25H550.625V25H556.875H563.125H569.375H575.625V31.25H581.875V37.5H588.125V43.75V50H581.875H575.625V43.75H569.375V37.5H563.125H556.875V43.75H550.625V50H544.375V56.25H538.125V62.5V68.75V75H531.875ZM688.125 75H681.875V68.75V62.5V56.25V50V43.75H675.625V37.5H669.375H663.125H656.875H650.625V43.75H644.375V50V56.25V62.5V68.75V75H638.125H631.875V68.75V62.5V56.25V50V43.75V37.5V31.25V25H638.125H644.375V31.25H650.625V25H656.875H663.125H669.375H675.625H681.875V31.25H688.125V37.5H694.375V43.75V50V56.25V62.5V68.75V75H688.125ZM750.625 75H744.375H738.125H731.875H725.625H719.375V68.75H713.125V62.5H706.875V56.25V50V43.75V37.5H713.125V31.25H719.375V25H725.625H731.875H738.125H744.375H750.625H756.875V31.25H763.125V37.5H769.375V43.75V50V56.25V62.5H763.125V68.75H756.875V75H750.625ZM744.375 62.5H750.625V56.25H756.875V50V43.75H750.625V37.5H744.375H738.125H731.875H725.625V43.75H719.375V50V56.25H725.625V62.5H731.875H738.125H744.375ZM831.875 75H825.625H819.375V68.75H813.125H806.875V75H800.625H794.375H788.125V68.75H781.875V62.5V56.25V50V43.75V37.5V31.25V25H788.125H794.375V31.25V37.5V43.75V50V56.25V62.5H800.625V56.25H806.875V50V43.75V37.5H813.125H819.375V43.75V50V56.25H825.625V62.5H831.875V56.25V50V43.75V37.5V31.25V25H838.125H844.375V31.25V37.5V43.75V50V56.25V62.5V68.75H838.125V75H831.875Z" fill="white"/>
</svg>
