<svg width="450" height="122" viewBox="0 0 450 122" fill="none" xmlns="http://www.w3.org/2000/svg">
<path d="M0 30C0 13.4315 13.4315 0 30 0H420C436.569 0 450 13.4315 450 30V92C450 108.569 436.569 122 420 122H30C13.4315 122 0 108.569 0 92V30Z" fill="#DA34C2"/>
<path d="M2 32C2 15.4315 15.4315 2 32 2H418C434.569 2 448 15.4315 448 32V90C448 106.569 434.569 120 418 120H32C15.4314 120 2 106.569 2 90V32Z" fill="white"/>
<path d="M7 33C7 18.6406 18.6406 7 33 7H417C431.359 7 443 18.6406 443 33V88C443 102.359 431.359 114 417 114H33C18.6406 114 7 102.359 7 88V33Z" fill="#DA34C2"/>
<path d="M10 35C10 20.6406 21.6406 9 36 9H415C429.359 9 441 20.6406 441 35V86C441 100.359 429.359 112 415 112H36C21.6406 112 10 100.359 10 86V35Z" fill="black"/>
</svg>
