<svg width="315" height="139" viewBox="0 0 315 139" fill="none" xmlns="http://www.w3.org/2000/svg">
<path d="M130 138.659L129.975 138.057V58.9939L119.81 59.1916L119.63 26.0878H110.788L110.607 15.4514H101.403V5.21038L82.8154 5.01275L82.4539 0H44.9248L44.744 4.81511L27.06 5.01275V15.2448L17.3142 15.0472V25.4859H7.21494L7.03413 57.5925L0 57.3859L0.172584 138.461H7.21494L7.25602 130.035H17.1416V118.59L27.1258 118.527V129.226L36.5101 129.361L36.6252 138.865L54.0708 139V118.527L72.3546 118.392L72.2314 138.865L93.2845 139L93.4077 128.696H101.946L101.855 118.392H110.516L110.607 128.624L119.63 128.427V138.766L130 138.659Z" fill="#F37721"/>
<path d="M102.488 39.0952H92.0193V29.2314H72.8973V39.0952H64.5977V69.2793H72.8973V79.9246H92.0193V69.2793H102.488V39.0952Z" fill="white"/>
<path d="M46.1905 39.7784H35.7215V30.0225H16.5995V39.7784H8.2998V69.6482H16.5995V80.1857H35.7215V69.6482H46.1905V39.7784Z" fill="white"/>
<path d="M92.0536 28.8145H72.3779V47.3478H92.0536V28.8145Z" fill="#2F55A6"/>
<path d="M35.8378 30.1382H16.1621V48.6715H35.8378V30.1382Z" fill="#2F55A6"/>
<path d="M315 138.667L314.969 138.06V58.9927L304.799 59.1978L304.619 26.0823H295.779L295.599 15.4511H286.399V5.21304L267.818 5.01647L267.459 0H229.923L229.743 4.81138L212.062 5.01647V15.246L202.322 15.0494V25.4841H192.215L192.035 57.5912L185 57.3861L185.18 138.462H192.215L192.262 130.035H202.142V118.592L212.124 118.532V129.232L221.504 129.369L221.629 138.863L239.068 139V118.532L257.352 118.396L257.234 138.863L278.277 139L278.402 128.694H286.938L286.852 118.396H295.513L295.599 128.634L304.619 128.429V138.761L315 138.667Z" fill="#FF2E0A"/>
<path d="M287.485 36.0979H277.019V26.2358H257.891V36.0979H249.59V66.2736H257.891V76.9304H277.019V66.2736H287.485V36.0979Z" fill="white"/>
<path d="M231.188 36.7819H220.722V27.0225H201.602V36.7819H193.301V66.65H201.602V77.1872H220.722V66.65H231.188V36.7819Z" fill="white"/>
<path d="M231.378 49.6431H213.811V68.1764H231.378V49.6431Z" fill="#2F55A6"/>
<path d="M287.595 49.6431H270.027V68.1764H287.595V49.6431Z" fill="#2F55A6"/>
</svg>
